<svg width="672" height="704" viewBox="0 0 672 704" fill="none" xmlns="http://www.w3.org/2000/svg">
<path d="M268.456 0.154175H4.38693C2.11997 0.154175 0.282227 1.99205 0.282227 4.25917V204.72C0.282227 206.987 2.11997 208.825 4.38693 208.825H268.456C270.723 208.825 272.561 206.987 272.561 204.72V4.25917C272.561 1.99205 270.723 0.154175 268.456 0.154175Z" fill="#F2F6FB"/>
<path d="M60.6329 107.751C73.9821 107.751 84.8038 96.9936 84.8038 83.7242C84.8038 70.4548 73.9821 59.6978 60.6329 59.6978C47.2836 59.6978 36.4619 70.4548 36.4619 83.7242C36.4619 96.9936 47.2836 107.751 60.6329 107.751Z" fill="#D8DEED"/>
<path d="M60.6197 83.3824C57.1549 83.3824 54.3461 80.6281 54.3461 77.2306C54.3461 73.833 57.1549 71.0787 60.6197 71.0787C64.0846 71.0787 66.8934 73.833 66.8934 77.2306C66.8934 80.6281 64.0846 83.3824 60.6197 83.3824ZM60.6197 86.4584C66.8997 86.4584 71.9907 91.4505 71.9907 97.6086H49.2488C49.2488 91.4505 54.3397 86.4584 60.6197 86.4584Z" fill="#F2F6FB"/>
<path d="M40.2475 114.073H81.0181C83.8114 114.073 86.0759 116.338 86.0759 119.132C86.0759 121.925 83.8114 124.19 81.0181 124.19H40.2475C37.4542 124.19 35.1897 121.925 35.1897 119.132C35.1897 116.338 37.4542 114.073 40.2475 114.073ZM46.6083 130.513H74.6573C77.4507 130.513 79.7151 132.777 79.7151 135.571C79.7151 138.364 77.4507 140.629 74.6573 140.629H46.6083C43.8149 140.629 41.5505 138.364 41.5505 135.571C41.5505 132.777 43.8149 130.513 46.6083 130.513Z" fill="#E1E5F0"/>
<path d="M44.0409 157.385H77.2247C82.1131 157.385 86.0759 161.348 86.0759 166.237C86.0759 171.126 82.1131 175.089 77.2247 175.089H44.0409C39.1525 175.089 35.1897 171.126 35.1897 166.237C35.1897 161.348 39.1525 157.385 44.0409 157.385ZM119.763 157.385H152.947C157.836 157.385 161.798 161.348 161.798 166.237C161.798 171.126 157.836 175.089 152.947 175.089H119.763C114.875 175.089 110.912 171.126 110.912 166.237C110.912 161.348 114.875 157.385 119.763 157.385ZM196.023 157.385H229.207C234.095 157.385 238.058 161.348 238.058 166.237C238.058 171.126 234.095 175.089 229.207 175.089H196.023C191.135 175.089 187.172 171.126 187.172 166.237C187.172 161.348 191.135 157.385 196.023 157.385Z" fill="#474BFF"/>
<path d="M136.356 107.751C149.705 107.751 160.526 96.9936 160.526 83.7242C160.526 70.4548 149.705 59.6978 136.356 59.6978C123.006 59.6978 112.185 70.4548 112.185 83.7242C112.185 96.9936 123.006 107.751 136.356 107.751Z" fill="#D8DEED"/>
<path d="M136.342 83.3824C132.878 83.3824 130.069 80.6281 130.069 77.2306C130.069 73.833 132.878 71.0787 136.342 71.0787C139.807 71.0787 142.616 73.833 142.616 77.2306C142.616 80.6281 139.807 83.3824 136.342 83.3824ZM136.342 86.4584C142.622 86.4584 147.713 91.4505 147.713 97.6086H124.971C124.971 91.4505 130.062 86.4584 136.342 86.4584Z" fill="#F2F6FB"/>
<path d="M115.97 114.073H156.741C159.534 114.073 161.799 116.338 161.799 119.132C161.799 121.925 159.534 124.19 156.741 124.19H115.97C113.177 124.19 110.912 121.925 110.912 119.132C110.912 116.338 113.177 114.073 115.97 114.073ZM115.97 130.513H156.741C159.534 130.513 161.799 132.777 161.799 135.571C161.799 138.364 159.534 140.629 156.741 140.629H115.97C113.177 140.629 110.912 138.364 110.912 135.571C110.912 132.777 113.177 130.513 115.97 130.513Z" fill="#E1E5F0"/>
<path d="M212.615 107.751C225.964 107.751 236.786 96.9936 236.786 83.7242C236.786 70.4548 225.964 59.6978 212.615 59.6978C199.266 59.6978 188.444 70.4548 188.444 83.7242C188.444 96.9936 199.266 107.751 212.615 107.751Z" fill="#D8DEED"/>
<path d="M212.602 83.3824C209.137 83.3824 206.328 80.6281 206.328 77.2306C206.328 73.833 209.137 71.0787 212.602 71.0787C216.067 71.0787 218.876 73.833 218.876 77.2306C218.876 80.6281 216.067 83.3824 212.602 83.3824ZM212.602 86.4584C218.882 86.4584 223.973 91.4505 223.973 97.6086H201.231C201.231 91.4505 206.322 86.4584 212.602 86.4584Z" fill="#F2F6FB"/>
<path d="M198.59 114.073H226.639C229.433 114.073 231.697 116.338 231.697 119.132C231.697 121.925 229.433 124.19 226.639 124.19H198.59C195.797 124.19 193.533 121.925 193.533 119.132C193.533 116.338 195.797 114.073 198.59 114.073ZM192.23 130.513H233C235.794 130.513 238.058 132.777 238.058 135.571C238.058 138.364 235.794 140.629 233 140.629H192.23C189.436 140.629 187.172 138.364 187.172 135.571C187.172 132.777 189.436 130.513 192.23 130.513Z" fill="#E1E5F0"/>
<path d="M0.282227 11.9556C0.282227 5.43786 5.5687 0.154175 12.08 0.154175H260.763C267.279 0.154175 272.561 5.43642 272.561 11.9556V23.757H0.282227V11.9556Z" fill="#D8DEED"/>
<path d="M16.1248 17.3199C18.9425 17.3199 21.2267 15.0383 21.2267 12.2238C21.2267 9.40934 18.9425 7.12775 16.1248 7.12775C13.3071 7.12775 11.0229 9.40934 11.0229 12.2238C11.0229 15.0383 13.3071 17.3199 16.1248 17.3199Z" fill="#FF5645"/>
<path d="M32.773 17.3199C35.5907 17.3199 37.8749 15.0383 37.8749 12.2238C37.8749 9.40934 35.5907 7.12775 32.773 7.12775C29.9553 7.12775 27.6711 9.40934 27.6711 12.2238C27.6711 15.0383 29.9553 17.3199 32.773 17.3199Z" fill="#FFCB3D"/>
<path d="M49.9583 17.3199C52.776 17.3199 55.0602 15.0383 55.0602 12.2238C55.0602 9.40934 52.776 7.12775 49.9583 7.12775C47.1406 7.12775 44.8564 9.40934 44.8564 12.2238C44.8564 15.0383 47.1406 17.3199 49.9583 17.3199Z" fill="#3ABF7C"/>
<path d="M429.908 133.567H262.299C254.743 133.567 248.617 139.693 248.617 147.25V331.291C248.617 338.848 254.743 344.974 262.299 344.974H429.908C437.465 344.974 443.59 338.848 443.59 331.291V147.25C443.59 139.693 437.465 133.567 429.908 133.567Z" fill="#E1E5F0"/>
<path d="M277.471 273.03H414.845C416.801 273.03 418.387 274.616 418.387 276.572C418.387 278.528 416.801 280.114 414.845 280.114H277.471C275.515 280.114 273.929 278.528 273.929 276.572C273.929 274.616 275.515 273.03 277.471 273.03ZM277.471 296.053H414.845C416.801 296.053 418.387 297.639 418.387 299.595C418.387 301.551 416.801 303.137 414.845 303.137H277.471C275.515 303.137 273.929 301.551 273.929 299.595C273.929 297.639 275.515 296.053 277.471 296.053ZM296.082 284.542H396.234C398.19 284.542 399.776 286.127 399.776 288.084C399.776 290.04 398.19 291.626 396.234 291.626H296.082C294.126 291.626 292.54 290.04 292.54 288.084C292.54 286.127 294.126 284.542 296.082 284.542ZM304.945 307.565H387.372C389.328 307.565 390.913 309.151 390.913 311.107C390.913 313.063 389.328 314.649 387.372 314.649H304.945C302.988 314.649 301.403 313.063 301.403 311.107C301.403 309.151 302.988 307.565 304.945 307.565Z" fill="#F2F6FB"/>
<path d="M345.715 207.383C358.93 207.383 369.643 196.678 369.643 183.474C369.643 170.269 358.93 159.565 345.715 159.565C332.5 159.565 321.786 170.269 321.786 183.474C321.786 196.678 332.5 207.383 345.715 207.383Z" fill="#474BFF"/>
<path d="M345.706 183.235C343.292 183.235 341.335 181.306 341.335 178.927C341.335 176.547 343.292 174.619 345.706 174.619C348.119 174.619 350.076 176.547 350.076 178.927C350.076 181.306 348.119 183.235 345.706 183.235ZM345.706 185.389C350.081 185.389 353.627 188.884 353.627 193.197H337.784C337.784 188.884 341.331 185.389 345.706 185.389Z" fill="#F2F6FB"/>
<path d="M371.59 227.75H319.84C317.884 227.75 316.298 229.335 316.298 231.292C316.298 233.248 317.884 234.834 319.84 234.834H371.59C373.546 234.834 375.132 233.248 375.132 231.292C375.132 229.335 373.546 227.75 371.59 227.75Z" fill="#F2F6FB"/>
<path d="M381.852 216.238H309.578C307.622 216.238 306.036 217.824 306.036 219.78C306.036 221.736 307.622 223.322 309.578 223.322H381.852C383.808 223.322 385.394 221.736 385.394 219.78C385.394 217.824 383.808 216.238 381.852 216.238Z" fill="#F2F6FB"/>
<path d="M245.949 703.372L245.675 703.508C244.239 704.261 242.391 703.85 241.707 702.551L161.597 555.386C160.845 554.018 161.46 552.308 162.897 551.555L163.171 551.418C164.607 550.666 166.454 551.076 167.138 552.376L186.978 588.774C199.908 612.583 212.838 636.323 225.836 660.132L247.249 699.403C248.001 700.772 247.385 702.551 245.949 703.372Z" fill="#D8DEED"/>
<path d="M49.5387 549.024H99.6845C130.059 549.024 160.434 549.024 190.741 549.024H237.261C238.902 549.024 240.339 550.392 240.339 552.034V552.376C240.339 554.018 238.971 555.386 237.261 555.386H49.4019C47.76 555.386 46.3233 554.018 46.3233 552.376V552.034C46.3233 550.392 47.76 549.024 49.5387 549.024Z" fill="#D8DEED"/>
<path d="M22.5844 699.404L43.9973 660.132C56.9272 636.323 69.857 612.583 82.8552 588.774L102.695 552.376C103.379 551.076 105.226 550.597 106.663 551.418L106.936 551.555C108.373 552.308 108.989 554.086 108.236 555.386L28.1258 702.551C27.4417 703.851 25.5946 704.33 24.1579 703.509L23.8843 703.372C22.4476 702.551 21.8319 700.772 22.5844 699.404Z" fill="#D8DEED"/>
<path d="M28.2626 354.447L34.7617 406.991C38.7296 438.804 42.629 470.618 46.5969 502.363L52.6171 551.076C52.8224 552.787 51.6594 554.497 50.0175 554.702L49.6754 554.771C48.0336 554.976 46.5285 553.744 46.2548 551.897L21.8319 355.131C21.6267 353.42 22.7896 351.71 24.4315 351.505L24.7736 351.436C26.4839 351.231 28.0573 352.599 28.2626 354.447Z" fill="#D8DEED"/>
<path d="M447.558 703.098L447.832 703.235C449.269 703.987 451.116 703.577 451.8 702.277L531.91 555.113C532.663 553.744 532.047 552.034 530.61 551.281L530.337 551.145C528.9 550.392 527.053 550.803 526.369 552.102L506.529 588.5C493.599 612.309 480.67 636.05 467.671 659.859L446.258 699.13C445.506 700.498 446.122 702.277 447.558 703.098Z" fill="#D8DEED"/>
<path d="M646.431 548.75H596.286C565.911 548.75 535.536 548.75 505.229 548.75H458.709C457.068 548.75 455.631 550.118 455.631 551.76V552.102C455.631 553.744 456.999 555.113 458.709 555.113H646.568C648.21 555.113 649.647 553.744 649.647 552.102V551.76C649.647 550.118 648.21 548.75 646.431 548.75Z" fill="#D8DEED"/>
<path d="M649.441 535.409V486.217C649.441 456.387 649.441 426.626 649.441 396.865V351.231C649.441 349.589 621.051 348.221 586.913 348.221H579.798C545.729 348.221 517.27 349.589 517.27 351.231V535.546C517.27 537.188 545.661 538.556 579.798 538.556H586.913C620.982 538.556 649.441 537.119 649.441 535.409Z" fill="#D8DEED"/>
<path d="M670.923 699.13L649.51 659.859C636.58 636.05 623.65 612.309 610.652 588.5L590.813 552.102C590.128 550.803 588.281 550.324 586.845 551.145L586.571 551.281C585.134 552.034 584.519 553.813 585.271 555.113L665.381 702.277C666.066 703.577 667.913 704.056 669.349 703.235L669.623 703.098C671.06 702.277 671.675 700.498 670.923 699.13Z" fill="#D8DEED"/>
<path d="M390.435 703.477H499.141C500.851 703.477 502.22 702.109 502.22 700.399C502.22 698.688 500.851 697.32 499.141 697.32H390.435C388.724 697.32 387.356 698.688 387.356 700.399C387.356 702.109 388.724 703.477 390.435 703.477ZM590.539 703.477C592.249 703.477 593.618 702.293 593.618 700.872V699.925C593.618 698.504 592.181 697.32 590.539 697.32H520.417C518.707 697.32 517.339 698.504 517.339 699.925V700.872C517.339 702.293 518.775 703.477 520.417 703.477H590.539Z" fill="#FF9839"/>
<path d="M389.412 697.543C389.769 697.399 390.16 697.32 390.571 697.32H499.278C499.715 697.32 500.13 697.41 500.506 697.571C500.597 697.261 500.646 696.932 500.646 696.589L498.368 654.911L451.253 654.218C450.5 654.218 449.816 654.426 449.2 654.911C441.401 663.371 433.944 668.087 428.54 670.861C424.367 673.011 410.411 678.975 404.117 681.887C402.181 682.764 399.316 684.338 395.522 686.609C394.62 687.149 393.807 687.824 393.11 688.61C391.143 690.831 389.909 692.82 389.408 694.578C389.272 694.994 389.272 695.341 389.203 695.757C389.135 696.104 389.203 696.451 389.203 696.797V696.867C389.252 697.102 389.322 697.328 389.412 697.543ZM519.087 697.636C519.522 697.435 520.021 697.32 520.554 697.32H589.658L573.778 654.97L524.795 661.607L519.087 697.636Z" fill="#474961"/>
<path d="M502.907 535.197C504.88 536.178 506.722 537.095 508.433 537.947L508.787 543.359C509.197 550.466 509.676 556.707 510.224 562.207C510.634 566.533 515.902 615.537 517.817 633.52C518.228 637.599 521.169 641.059 525.206 642.171C531.294 643.902 535.194 644.89 550.997 645.447C552.023 645.508 553.049 645.447 554.007 645.385C569.331 644.149 576.993 641.924 578.704 641.183C580.893 640.256 582.056 639.823 583.219 638.773C587.324 635.188 587.05 629.503 587.118 627.402C587.464 614.012 588.394 577.957 588.677 546.937C589.091 546.938 589.506 546.94 589.923 546.941C593.816 546.941 597.561 545.299 601.013 542.425C605.42 538.731 620.913 526.513 621.874 500.806C622.542 482.922 619.428 469.338 612.532 460.052C612.532 459.983 603.948 446.437 598.733 446.437H521.926C516.589 446.619 492.758 447.237 450.432 448.29L450.457 448.453C450.22 448.448 449.984 448.443 449.748 448.438C432.439 448.12 418.415 461.921 418.825 478.774C418.825 478.901 418.825 478.965 418.825 479.092C419.92 531.37 432.713 605.843 433.602 631.028C433.671 631.982 433.944 634.081 435.381 636.306C439.828 643.111 450.226 641.585 474.513 642.158C495.173 642.666 503.519 644.193 507.761 638.596C510.087 635.543 510.018 632.045 509.95 630.455C508.258 598.548 505.796 566.34 502.907 535.197Z" fill="#A339FF"/>
<path opacity="0.176986" d="M503.054 535.065C505.028 536.046 506.87 536.962 508.579 537.814L505.444 489.88C505.375 487.099 505.033 470.29 518.647 459.599C528.567 451.875 540.607 451.38 548.611 451.071C560.925 450.577 570.503 453.79 572.35 454.408C574.676 455.212 575.839 455.644 577.002 456.201C590.274 462.627 589.248 493.526 589.111 499.149C588.974 506.256 588.906 517.317 588.906 530.171C588.906 535.399 588.876 540.978 588.823 546.731C589.188 546.733 589.555 546.734 589.923 546.735C593.816 546.735 597.561 545.093 601.013 542.219C605.42 538.525 620.913 526.307 621.874 500.6C622.542 482.716 619.428 469.132 612.532 459.846C612.532 459.777 603.948 446.231 598.733 446.231H521.926C516.726 446.409 493.393 447.11 451.928 448.334C456.983 448.446 461.997 448.558 467.065 448.67C482.457 449.052 495.25 460.436 496.892 475.318C499.065 494.511 501.152 514.557 503.054 535.065Z" fill="#444444"/>
<path d="M502.603 367.42C492.546 359.894 466.55 339.437 466.55 339.437C458.067 347.1 478.453 360.852 478.453 360.852" fill="#482D1F"/>
<path d="M456.188 336.529C461.29 328.005 459.827 316.791 452.167 309.893C443.462 302.055 430.053 302.757 422.216 311.462C414.378 320.167 415.081 333.578 423.785 341.415C431.266 348.151 442.221 348.579 450.128 343.041L474.427 364.921C474.988 365.427 475.853 365.382 476.359 364.82L480.479 360.244C480.984 359.682 480.939 358.817 480.378 358.312L456.188 336.529ZM448.652 335.268C443.343 341.165 434.259 341.641 428.363 336.331C422.466 331.022 421.99 321.937 427.3 316.04C432.609 310.143 441.693 309.667 447.589 314.977C453.485 320.286 453.961 329.371 448.652 335.268Z" fill="#474961"/>
<path d="M517.595 344.98C516.569 347.669 515.737 350.431 515.101 353.265C511.317 370.116 505.132 380.039 509.391 388.106C511.906 392.864 516.737 394.292 520.482 394.692L523.055 426.851C524.076 435.558 524.757 440.403 525.1 441.385C525.036 449.434 535.147 447.386 553.972 447.386C575.876 447.386 605.095 450.335 606.837 442.228C608.407 434.923 608.03 419.599 605.708 396.257C613.319 394.265 618.919 390.823 620.347 388.036C624.364 380.297 619.754 367.789 614.616 353.751C608.425 336.923 605.066 328.644 597.492 321.805C591.218 316.154 584.363 314.202 578.588 315.293C573.926 313.417 568.805 312.586 563.515 313.053L548.52 314.376C532.549 315.665 520.177 329.027 517.595 344.98Z" fill="#5EDB8C"/>
<path opacity="0.176986" d="M517.125 345.979C516.244 348.398 515.519 350.875 514.95 353.409C511.166 370.261 504.981 380.184 509.24 388.251C511.725 392.951 516.469 394.401 520.194 394.822L520.031 392.779L519.983 392.096L517.011 355.475L516.925 354.246C516.691 351.453 516.768 348.683 517.125 345.979Z" fill="#444444"/>
<path d="M570.105 313.138C568.921 309.164 567.218 302.596 564.996 293.433L564.8 289.577C564.937 288.825 565.064 288.801 565.748 288.595C567.527 288.116 568.483 286.962 569.715 285.593C571.972 282.993 572.588 279.162 571.493 275.673C570.125 272.32 566.568 269.789 563.284 270.063C562.053 270.199 560.89 270.678 559.795 271.363L559.727 271.431C559.385 271.773 558.906 271.841 558.427 271.91C557.264 271.91 556.306 271.089 556.238 269.926L555.622 252.069C555.622 250.906 554.733 250.085 553.57 250.085C551.038 250.085 548.575 249.948 546.044 249.401C545.702 249.401 545.429 249.332 545.155 249.332C542.692 249.059 529.489 248.238 522.374 258.021C521.758 258.979 521.142 259.937 520.663 260.895C519.432 263.358 518.885 266.094 519.09 268.968L519.843 281.42C519.979 282.651 520.116 283.883 520.39 285.183C523.674 300.576 530.652 311.249 536.535 311.592C539.545 311.66 542.555 311.318 545.497 310.428C545.863 310.246 545.631 310.389 549.743 308.726L550.581 313.254C542.413 314.584 537.869 317.183 537.37 317.438C538.825 319.044 539.028 319.586 540.285 320.601C554.337 331.957 577.147 317.004 580.024 315.088C576.517 314.186 573.208 313.554 570.105 313.138ZM510.092 407.412L508.995 415.274L454.674 425.527C453.07 425.25 451.52 425.098 450.024 425.054C444.881 424.84 440.451 425.839 437.451 426.623C429.95 426.266 422.521 425.838 415.092 425.482C409.02 424.056 395.447 421.916 395.018 430.474C395.018 430.474 400.876 432.042 408.805 434.11C410.66 434.594 412.63 435.107 414.666 435.636C425.182 439.267 438.941 446.754 446.864 449.294L528.024 446.462C526.799 444.957 525.885 443.251 525.341 441.329C524.998 440.347 524.316 435.502 523.296 426.795L522.314 414.531C537.137 422.959 550.902 430.011 563.61 435.687C571.311 439.127 580.724 441.824 588.277 444.404C605.876 447.988 609.2 441.649 611.209 439.571C613.548 437.151 621.34 430.282 617.83 390.842C611.455 395.634 596.218 400.3 581.016 396.168C577.086 395.1 573.575 394.091 570.482 393.141L570.729 395.521L489.465 361.41C489.27 361.259 489.058 361.125 488.83 361.011L465.365 349.859C463.586 349.038 461.397 349.79 460.507 351.569L459.687 353.143C458.853 354.874 459.522 356.846 461.074 357.819C459.422 357.471 457.785 358.25 457.087 359.821L456.266 361.394C455.567 362.846 455.924 364.467 456.973 365.526C456.078 365.796 455.277 366.405 454.785 367.303L453.883 368.831C452.898 370.629 453.607 372.79 455.336 373.772L467.586 380.4C482.553 390.443 496.721 399.446 510.092 407.412ZM451.051 641.579L450.432 655.115L498.368 658.817L498.16 642.419C492.916 642.763 485.475 642.218 474.658 641.952C464.591 641.714 456.91 641.838 451.051 641.579ZM526.133 642.187L524.82 662.916L574.105 657.061L571.802 642.853C567.748 643.668 561.94 644.551 554.153 645.179C553.195 645.241 552.169 645.302 551.143 645.241C536.025 644.709 531.801 643.781 526.133 642.187Z" fill="#BF865F"/>
<path d="M566.735 301.001C567.528 304.526 568.23 307.443 568.716 308.923C569.797 308.923 570.883 308.923 571.972 308.923C573.607 308.923 579.518 308.302 585.039 307.966C585.039 307.966 585.449 307.966 585.791 307.897C587.57 307.623 589.28 307.35 590.991 306.46C590.991 306.46 591.538 306.255 592.017 305.845C601.663 297.908 603.784 286.551 599.679 280.188C596.737 275.741 590.991 274.031 590.17 273.757C589.075 273.415 587.981 273.278 587.023 273.21C586.649 272.088 586.275 270.91 585.901 269.727C585.803 265.733 584.915 260.426 581.413 256.037C579.976 254.19 578.061 252.822 576.009 251.795C570.536 249.059 566.363 250.427 555.553 250.153C553.364 250.153 545.808 249.191 545.534 249.191C534.39 248.485 526.597 251.566 522.156 258.432C525.448 257.93 528.12 257.93 530.173 258.432C543.445 261.716 547.344 284.704 553.433 283.746C553.491 283.739 553.552 283.728 553.617 283.714L553.57 283.678L556.511 275.604C557.195 273.962 558.358 272.662 559.727 271.568C560.821 270.884 561.984 270.405 563.216 270.268C566.499 269.994 570.057 272.526 571.425 275.878C571.648 276.452 571.814 277.039 571.925 277.629C572.305 280.534 571.556 283.473 569.715 285.593C569.612 285.708 569.506 285.821 569.398 285.931C569.393 285.938 569.389 285.945 569.384 285.952C567.95 287.43 566.087 288.447 564.049 288.849C564.895 293.389 566.237 299.313 566.735 301.001ZM529.489 277.794C530.857 278.136 533.114 278.478 534.962 277.999C538.177 277.315 535.167 275.399 532.225 275.262C530.857 275.194 529.762 275.741 529.078 276.289C528.599 276.767 528.804 277.657 529.489 277.794ZM517.934 277.796C519.339 278.153 521.505 278.582 523.452 278.068C526.749 277.299 523.696 275.368 520.804 275.278C519.287 275.205 518.306 275.771 517.598 276.314C517.021 276.777 517.235 277.651 517.934 277.796Z" fill="#482D1F"/>
<path opacity="0.2" d="M511.145 407.835C510.81 407.64 510.475 407.443 510.139 407.247L508.991 415.341L454.68 425.528C453.074 425.251 451.522 425.098 450.024 425.054C444.88 424.84 440.451 425.839 437.451 426.623C429.95 426.266 422.521 425.839 415.092 425.482C409.02 424.056 395.447 421.916 395.018 430.474C395.018 430.474 400.876 432.042 408.805 434.11C410.66 434.594 412.63 435.107 414.666 435.636C425.182 439.267 438.94 446.754 446.864 449.294L528.024 446.462C526.799 444.957 525.885 443.251 525.341 441.329C524.998 440.347 524.316 435.502 523.296 426.795L522.376 415.299L522.312 415.039L522.354 415.03L522.314 414.532L511.145 407.835Z" fill="#8C2A00"/>
<path d="M364.191 405.414C363.57 407.515 364.727 409.677 366.827 410.298L460.832 439.185C462.932 439.806 465.094 438.649 465.715 436.548C466.336 434.448 465.18 432.285 463.079 431.664L369.075 402.778C367.043 402.159 364.812 403.314 364.191 405.414Z" fill="#474961"/>
<path d="M549.77 308.642L555.132 306.244L550.777 314.236L549.77 308.642Z" fill="#482D1F"/>
<path d="M522.921 286.141C523.537 285.32 523.331 283.472 523.126 282.241C523.058 281.351 522.237 280.804 521.484 280.804C521.005 280.873 520.39 281.146 520.253 282.104C519.774 284.362 522.1 287.509 522.921 286.141ZM534.209 286.209C534.893 285.388 534.619 283.472 534.414 282.309C534.346 281.42 533.525 280.873 532.772 280.873C532.293 280.941 531.678 281.215 531.541 282.172C531.062 284.43 533.32 287.577 534.209 286.209Z" fill="#482D1F"/>
<path d="M524.112 285.004L523.501 281.02C523.444 280.646 523.7 280.297 524.074 280.24C524.447 280.182 524.796 280.439 524.854 280.812L525.471 284.839L525.479 284.924L525.673 292.172C525.7 292.253 525.766 292.305 525.855 292.313C526.682 292.208 527.748 292.108 529.055 292.014C529.431 291.987 529.759 292.27 529.786 292.647C529.813 293.024 529.53 293.352 529.153 293.379C527.844 293.473 526.786 293.572 525.981 293.676L525.905 293.682C525.107 293.696 524.458 293.139 524.318 292.385L524.307 292.279L524.112 285.004Z" fill="#482D1F"/>
<path d="M529.625 298.934C530.104 298.866 531.336 298.592 531.609 297.84C531.609 297.703 531.746 297.498 531.678 297.361C531.472 297.019 529.352 297.019 529.352 297.019C526.547 297.087 525.863 296.95 525.658 297.292C525.589 297.498 525.589 297.771 526.068 298.387C526.684 299.55 528.941 299.14 529.625 298.934Z" fill="#482D1F"/>
<path d="M571.072 392.434L567.326 357.848C567.265 357.284 567.673 356.778 568.236 356.717C568.799 356.656 569.306 357.063 569.367 357.627L573.112 392.213C573.173 392.776 572.766 393.283 572.202 393.344C571.639 393.405 571.133 392.997 571.072 392.434Z" fill="#482D1F"/>
<path d="M264.264 697.32H169.366C167.634 697.32 166.249 698.688 166.249 700.399C166.249 702.109 167.634 703.477 169.366 703.477H279.432H357.802C359.512 703.477 360.881 702.109 360.881 700.399C360.881 698.688 359.512 697.32 357.802 697.32H264.264Z" fill="#DE3190"/>
<path d="M358.722 697.387C358.862 697.112 358.968 696.814 359.034 696.499V696.431C359.034 696.089 359.102 695.746 359.034 695.404C358.965 694.994 358.965 694.652 358.828 694.241C357.939 691.163 355.545 688.563 353.971 687.126C353.766 686.921 353.629 686.852 353.424 686.715C350.414 684.868 347.335 683.158 344.12 681.721C337.826 678.848 323.87 672.964 319.697 670.843C314.292 668.106 306.835 663.454 299.036 655.107C298.421 654.628 297.737 654.423 296.984 654.423L249.985 654.696C248.001 654.696 246.428 656.338 246.565 658.391L247.007 674.687C245.017 673.747 242.993 672.705 240.716 671.39C237.481 669.543 232.938 666.532 227.845 662.017C225.023 659.554 222.132 657.091 219.31 654.628L176.703 654.081L167.804 697.904C168.318 697.536 168.952 697.32 169.64 697.32H264.538H358.076C358.298 697.32 358.514 697.343 358.722 697.387Z" fill="#474961"/>
<path opacity="0.176986" d="M278.717 697.32H357.972C358.149 697.007 358.281 696.663 358.358 696.294V696.225C358.358 695.883 358.426 695.541 358.358 695.199C358.289 694.789 358.289 694.447 358.153 694.036C357.263 690.957 354.869 688.357 353.295 686.921C353.09 686.715 352.953 686.647 352.748 686.51C349.738 684.663 346.659 682.953 343.444 681.516C337.15 678.642 323.194 672.758 319.021 670.638C313.616 667.901 306.16 663.249 298.361 654.902C297.745 654.423 297.061 654.218 296.308 654.218L249.309 654.491C247.325 654.491 246.419 655.933 246.556 657.985L247.018 675.04C251.724 677.218 256.427 678.965 264.086 682.61C267.37 684.184 270.517 685.963 273.596 687.947C275.101 689.315 277.7 692.12 278.521 695.404C278.658 695.952 278.658 696.499 278.726 696.978C278.726 697.093 278.723 697.207 278.717 697.32H278.717Z" fill="#444444"/>
<path d="M256.031 663.95C256.265 663.977 256.503 663.99 256.744 663.99L301.169 663.515H304.759C308.289 663.515 311.271 660.792 311.453 656.76C311.879 648.625 312.427 637.919 313.096 625.543C314.922 594.327 315.896 584.385 316.991 560.33C317.174 556.297 317.356 552.682 317.478 549.276C317.965 533.076 319.243 517.92 321.738 498.106C323.138 487.121 323.807 480.308 323.868 474.537C323.929 469.184 322.529 463.9 319.851 459.52C318.513 457.365 316.991 455.488 315.166 453.888C310.48 449.787 304.211 446.31 299.221 446.658C286.287 446.719 273.353 446.726 260.419 446.773C257.71 446.131 254.688 445.813 251.352 445.82L244.866 445.889C244.903 445.811 217.594 445.666 162.938 445.455C146.007 432.163 127.3 426.59 106.816 428.735C98.6409 429.591 91.2332 431.925 84.5932 435.735C77.2632 439.885 70.8631 445.824 65.3928 453.551C62.02 457.078 51.8942 473.177 53.9053 497.698C54.2944 502.213 55.1376 512.271 60.5859 521.849C66.2936 531.838 73.2986 539.158 85.0383 543.332C95.416 547.026 107.545 548.326 120.128 546.889C137.856 543.514 158.361 540.709 181.641 538.474C175.354 555.68 171.281 566.495 169.422 570.919C166.633 577.487 159.062 605.844 156.218 627.568C154.827 638.193 155.312 647.586 157.675 655.75C159.115 660.728 163.676 664.153 168.858 664.147L227.083 664.087L253.222 663.95H256.031Z" fill="#3ABF7C"/>
<path opacity="0.176986" d="M259.475 446.776C265.245 448.008 269.648 450.66 272.684 454.732C279.238 463.522 277.35 471.973 277.35 477.173V477.515C277.285 483.193 276.572 489.898 275.145 500.708C272.485 520.207 271.123 535.053 270.604 551.063C270.475 554.347 270.28 557.973 270.086 561.941C268.983 585.545 267.88 595.328 265.934 626.116C265.156 638.294 264.572 648.762 264.183 656.835C263.989 660.803 260.81 663.95 257.049 663.95H256.011C256.252 663.984 256.496 664.001 256.744 664.001L301.169 663.515H304.759C308.289 663.515 311.453 660.591 311.453 656.099C311.879 647.99 312.427 637.317 313.096 624.981C314.922 593.863 315.896 583.952 316.991 559.972C317.174 555.953 317.356 552.349 317.478 548.953C317.965 532.805 319.243 517.696 321.738 497.944C323.138 486.994 323.807 480.202 323.868 474.449C323.929 469.113 322.529 463.846 319.851 459.479C318.513 457.331 316.991 455.46 315.166 453.866C310.48 449.777 304.211 446.311 299.221 446.658C285.973 446.72 272.724 446.726 259.475 446.776Z" fill="#444444"/>
<path d="M153.401 320.729C159.353 325.372 164.16 332.517 165.061 335.137C172.531 356.866 181.529 356.005 182.247 360.712C183.322 367.754 175.078 368.611 175.078 368.611C171.25 368.978 168.34 369.257 166.347 369.45L165.873 388.886L165.829 389.572L165.033 423.623L164.854 430.27C164.873 430.817 164.821 431.298 164.772 431.847C164.725 432.465 164.676 433.015 164.629 433.632C164.479 435.212 164.19 436.728 163.763 438.249C163.58 438.872 163.465 439.492 163.213 440.117C106.283 442.105 77.6448 438.13 77.2978 428.193L78.7164 368.88L70.0824 368.588C70.0824 368.588 60.6985 367.956 61.7699 360.873C62.4861 356.139 72.7775 356.524 80.827 334.45C81.9321 331.419 88.6878 322.272 96.6707 317.565C96.9234 317.416 97.1772 317.271 97.4321 317.131C102.881 314.053 109.204 312.36 115.905 312.52L131.664 312.928C139.923 313.092 147.449 315.989 153.401 320.729Z" fill="#A94AFC"/>
<path opacity="0.176986" d="M160.81 328.249C163.069 331.132 164.642 333.79 165.12 335.178C172.59 356.907 181.529 356.005 182.247 360.712C183.322 367.754 175.176 368.589 175.176 368.589L166.57 369.422L167.029 350.616L167.054 349.383C167.268 341.549 164.94 334.243 160.81 328.249Z" fill="#444444"/>
<mask id="mask0" mask-type="alpha" maskUnits="userSpaceOnUse" x="50" y="247" width="203" height="199">
<path d="M121.876 284.333C121.752 284.218 121.63 284.099 121.509 283.975C119.343 281.691 118.074 278.062 119.27 274.553C120.383 271.173 123.698 268.436 126.986 268.574C128.837 268.631 133.807 269.769 133.775 268.12L133.414 250.669C133.392 249.57 134.248 248.631 135.351 248.609C137.768 248.52 140.138 248.219 142.688 247.527C142.967 247.487 143.246 247.448 143.526 247.409C145.835 247.034 158.798 245.444 166.226 254.586C166.903 255.342 167.497 256.227 168.077 257.248C169.413 259.581 170.094 262.258 170.08 264.999L170.032 277.197C169.971 278.425 169.911 279.652 169.714 280.866C167.357 296.044 161.067 306.766 155.359 307.402C154.657 307.534 150.987 307.767 146.622 306.761C146.224 306.651 146.541 306.819 140.849 304.819L139.909 314.076C137.193 313.367 134.345 312.964 131.405 312.906L119.652 312.603L121.137 298.522L121.781 292.419L121.876 284.333ZM165.164 416.251L165.739 391.708L165.8 389.405L165.834 388.877L166.11 377.617L166.324 369.469L171.887 368.934L191.085 421.181C192.878 421.52 194.955 421.943 197.387 422.461C201.302 422.44 204.542 422.529 207.108 422.73C217.501 423.543 226.43 423.881 236.885 430.095C255.943 441.421 257.429 446.636 241.342 445.74L208.53 445.549C208.121 445.699 207.713 445.795 207.305 445.831C207.305 445.831 159.355 445.409 63.4529 444.564C59.5955 444.53 55.9731 442.705 53.6501 439.626C52.5327 438.144 51.7214 435.434 51.2161 431.495C49.6496 423.183 54.1257 411.279 62.6304 388.157C65.3351 380.826 67.8966 374.161 70.3074 368.238L123.318 370.244C119.229 380.403 112.015 404.567 109.971 408.27C109.967 408.272 109.962 408.275 109.957 408.277C125.222 410.334 143.512 412.883 165.164 416.251Z" fill="white"/>
</mask>
<g mask="url(#mask0)">
<path d="M121.876 284.333C121.752 284.218 121.63 284.099 121.509 283.975C119.343 281.691 118.074 278.062 119.27 274.553C120.383 271.173 123.698 268.436 126.986 268.574C128.837 268.631 133.807 269.769 133.775 268.12L133.414 250.669C133.392 249.57 134.248 248.631 135.351 248.609C137.768 248.52 140.138 248.219 142.688 247.527C142.967 247.487 143.246 247.448 143.526 247.409C145.835 247.034 158.798 245.444 166.226 254.586C166.903 255.342 167.497 256.227 168.077 257.248C169.413 259.581 170.094 262.258 170.08 264.999L170.032 277.197C169.971 278.425 169.911 279.652 169.714 280.866C167.357 296.044 161.067 306.766 155.359 307.402C154.657 307.534 150.987 307.767 146.622 306.761C146.224 306.651 146.541 306.819 140.849 304.819L139.909 314.076C137.193 313.367 134.345 312.964 131.405 312.906L119.652 312.603L121.137 298.522L121.781 292.419L121.876 284.333ZM165.164 416.251L165.739 391.708L165.8 389.405L165.834 388.877L166.11 377.617L166.324 369.469L171.887 368.934L191.085 421.181C192.878 421.52 194.955 421.943 197.387 422.461C201.302 422.44 204.542 422.529 207.108 422.73C217.501 423.543 226.43 423.881 236.885 430.095C255.943 441.421 257.429 446.636 241.342 445.74L208.53 445.549C208.121 445.699 207.713 445.795 207.305 445.831C207.305 445.831 159.355 445.409 63.4529 444.564C59.5955 444.53 55.9731 442.705 53.6501 439.626C52.5327 438.144 51.7214 435.434 51.2161 431.495C49.6496 423.183 54.1257 411.279 62.6304 388.157C65.3351 380.826 67.8966 374.161 70.3074 368.238L123.318 370.244C119.229 380.403 112.015 404.567 109.971 408.27C109.967 408.272 109.962 408.275 109.957 408.277C125.222 410.334 143.512 412.883 165.164 416.251Z" fill="#F2A98A"/>
<path d="M140.342 309.888L133.985 301.827L140.872 304.816L140.342 309.888Z" fill="#482D1F"/>
<path d="M165.559 276.541C165.638 275.605 166.384 274.908 167.323 274.914C167.898 274.874 168.431 275.266 168.717 276.249C169.317 278.641 167.041 282.237 166.001 280.806C165.362 279.92 165.505 277.834 165.559 276.541ZM150.449 276.226C150.528 275.29 151.274 274.593 152.214 274.599C152.789 274.559 153.322 274.951 153.607 275.934C154.208 278.326 151.931 281.922 150.892 280.491C150.252 279.605 150.395 277.519 150.449 276.226Z" fill="#482D1F"/>
<path d="M162.048 277.272L163.125 283.847C163.187 284.683 162.605 285.497 161.807 285.553C161.338 285.623 161.035 285.644 159.819 285.706C159.275 285.734 158.903 285.756 158.463 285.786C158.086 285.813 157.759 285.529 157.733 285.152C157.707 284.775 157.991 284.448 158.368 284.421C158.817 284.39 159.197 284.368 159.749 284.34C160.917 284.28 161.201 284.26 161.661 284.193C161.692 284.189 161.773 284.076 161.768 284.005L160.698 277.493C160.637 277.12 160.89 276.768 161.263 276.707C161.635 276.646 161.987 276.899 162.048 277.272Z" fill="#482D1F"/>
<path d="M157.738 289.978C157.273 289.86 156.131 289.415 155.948 288.677C155.938 288.528 155.857 288.309 155.917 288.229C156.151 287.838 157.017 288.077 158.204 288.22C160.311 288.447 162.067 288.325 162.067 288.325C162.067 288.325 161.57 289.635 161.271 290.031C160.618 290.976 158.475 290.226 157.738 289.978Z" fill="#482D1F"/>
<path d="M140.191 273.371C141.413 269.861 144.63 267.237 148.572 266.961C153.848 266.592 158.425 270.571 158.794 275.848C158.799 275.924 158.804 276.001 158.807 276.077C158.893 276.06 158.983 276.054 159.075 276.061L161.001 276.195C161.423 271.603 165.121 267.861 169.871 267.529C175.147 267.16 179.724 271.139 180.093 276.416C180.462 281.693 176.484 286.27 171.207 286.639C166.099 286.997 161.647 283.28 161.033 278.255L158.932 278.108C158.849 278.102 158.769 278.087 158.694 278.063C157.996 282.35 154.428 285.755 149.908 286.071C144.631 286.44 140.054 282.462 139.685 277.184C139.642 276.568 139.658 275.962 139.729 275.371L134.748 274.147C134.198 274.012 133.861 273.456 133.996 272.906C134.131 272.356 134.687 272.019 135.237 272.154L140.191 273.371ZM163.02 277.4C163.023 277.47 163.027 277.539 163.032 277.609C163.322 281.756 166.918 284.882 171.064 284.592C175.21 284.302 178.336 280.706 178.046 276.559C177.756 272.413 174.16 269.287 170.014 269.577C166.027 269.856 162.983 273.192 163.013 277.135C163.025 277.209 163.029 277.287 163.023 277.365C163.022 277.377 163.021 277.389 163.02 277.4ZM149.765 284.024C153.911 283.734 157.037 280.138 156.747 275.991C156.457 271.845 152.861 268.719 148.715 269.009C144.569 269.299 141.443 272.895 141.733 277.041C142.023 281.188 145.619 284.314 149.765 284.024Z" fill="#482D1F"/>
<path d="M102.263 414.109C101.765 414.38 101.142 414.197 100.87 413.7C100.599 413.202 100.782 412.579 101.28 412.307L109.831 407.64C110.329 407.368 110.952 407.552 111.223 408.049C111.495 408.547 111.312 409.17 110.814 409.442L102.263 414.109ZM123.991 370.977C123.77 371.499 123.167 371.742 122.645 371.521C122.124 371.299 121.88 370.697 122.102 370.175L131.264 348.578C131.485 348.056 132.087 347.813 132.609 348.034C133.131 348.255 133.374 348.858 133.153 349.38L123.991 370.977Z" fill="#262626"/>
<path opacity="0.2" d="M165.155 416.449L165.782 389.634L165.826 388.948L166.301 369.459L171.868 368.921L191.026 421.308L165.155 416.449Z" fill="#8C2A00"/>
</g>
<path d="M135.041 273.694C134.761 273.187 133.688 271.412 131.731 270.038C131.541 269.881 130.055 268.968 128.204 268.911C124.917 268.772 121.601 271.519 120.488 274.91C119.293 278.431 120.493 282.065 122.66 284.357C124.333 286.126 126.364 286.826 127.607 287.127C127.595 289.451 127.643 291.976 127.752 294.701C122.446 294.354 117.771 292.042 113.726 287.764C112.054 286.006 107.613 281.137 106.229 273.355C106.07 272.365 105.755 270.475 105.727 268.133C95.2005 268.307 86.6871 263.604 83.5563 256.932C80.6396 250.65 82.6639 243.127 82.9517 242.062C85.8396 231.345 95.5631 231.468 96.3951 231.447C96.3951 231.447 110.413 226.577 121.493 248.999C121.5 249.013 121.507 249.028 121.514 249.042C124.691 248.794 128.544 249.018 134.414 248.663C136.559 248.544 139.687 248.02 143.53 247.461C143.802 247.489 147.087 247.155 147.366 247.116C148.754 247.116 153.404 246.678 159.418 249.371C165.431 252.064 167.65 256.114 167.561 256.283C167.389 256.609 164.319 257.997 162.486 258.424C157.34 259.603 152.871 258.927 150.124 258.225C149.401 259.869 148.378 261.756 147.014 263.608C143.065 269.109 138.088 271.957 134.984 273.351C135.002 273.465 135.022 273.579 135.041 273.694Z" fill="#482D1F"/>
<path d="M182.655 539.028L202.498 518.202C202.889 517.792 202.874 517.143 202.464 516.752C202.053 516.361 201.404 516.376 201.013 516.786L181.169 537.612C180.778 538.022 180.793 538.672 181.204 539.063C181.614 539.454 182.264 539.438 182.655 539.028Z" fill="#482D1F"/>
<path d="M610.515 444.863H63.221C60.5762 444.863 58.4321 447.007 58.4321 449.652C58.4321 452.297 60.5762 454.441 63.221 454.441H610.515C613.16 454.441 615.304 452.297 615.304 449.652C615.304 447.007 613.16 444.863 610.515 444.863Z" fill="#D8DEED"/>
<path d="M641.301 15.2058H416.226C408.669 15.2058 402.543 21.3321 402.543 28.8892V195.142C402.543 202.699 408.669 208.825 416.226 208.825H641.301C648.857 208.825 654.983 202.699 654.983 195.142V28.8892C654.983 21.3321 648.857 15.2058 641.301 15.2058Z" fill="#F2F6FB"/>
<path d="M420.901 80.3007H508.267C510.156 80.3007 511.688 81.8322 511.688 83.7215V86.2514C511.688 88.1406 510.156 89.6722 508.267 89.6722H420.901C419.012 89.6722 417.481 88.1406 417.481 86.2514V83.7215C417.481 81.8322 419.012 80.3007 420.901 80.3007ZM420.901 95.5294H520.043C521.932 95.5294 523.464 97.0609 523.464 98.9502V101.48C523.464 103.369 521.932 104.901 520.043 104.901H420.901C419.012 104.901 417.481 103.369 417.481 101.48V98.9502C417.481 97.0609 419.012 95.5294 420.901 95.5294ZM420.901 125.987H531.819C533.708 125.987 535.24 127.518 535.24 129.408V131.937C535.24 133.827 533.708 135.358 531.819 135.358H420.901C419.012 135.358 417.481 133.827 417.481 131.937V129.408C417.481 127.518 419.012 125.987 420.901 125.987ZM420.901 141.215H496.491C498.381 141.215 499.912 142.747 499.912 144.636V147.166C499.912 149.055 498.381 150.587 496.491 150.587H420.901C419.012 150.587 417.481 149.055 417.481 147.166V144.636C417.481 142.747 419.012 141.215 420.901 141.215ZM420.901 156.444H520.043C521.932 156.444 523.464 157.976 523.464 159.865V162.395C523.464 164.284 521.932 165.816 520.043 165.816H420.901C419.012 165.816 417.481 164.284 417.481 162.395V159.865C417.481 157.976 419.012 156.444 420.901 156.444ZM420.901 171.673H531.819C533.708 171.673 535.24 173.204 535.24 175.094V177.624C535.24 179.513 533.708 181.044 531.819 181.044H420.901C419.012 181.044 417.481 179.513 417.481 177.624V175.094C417.481 173.204 419.012 171.673 420.901 171.673Z" fill="#E1E5F0"/>
<path d="M531.819 65.4771H420.901C419.012 65.4771 417.481 67.0087 417.481 68.898V70.776C417.481 72.6653 419.012 74.1969 420.901 74.1969H531.819C533.708 74.1969 535.24 72.6653 535.24 70.776V68.898C535.24 67.0087 533.708 65.4771 531.819 65.4771Z" fill="#D8DEED"/>
<path d="M566.574 80.3007H642.6C644.489 80.3007 646.021 81.8322 646.021 83.7215V86.3788C646.021 88.2681 644.489 89.7996 642.6 89.7996H566.574C564.685 89.7996 563.153 88.2681 563.153 86.3788V83.7215C563.153 81.8322 564.685 80.3007 566.574 80.3007ZM566.574 95.7365H618.924C620.813 95.7365 622.344 97.268 622.344 99.1573V101.815C622.344 103.704 620.813 105.235 618.924 105.235H566.574C564.685 105.235 563.153 103.704 563.153 101.815V99.1573C563.153 97.268 564.685 95.7365 566.574 95.7365ZM566.574 111.172H630.762C632.651 111.172 634.182 112.704 634.182 114.593V117.25C634.182 119.14 632.651 120.671 630.762 120.671H566.574C564.685 120.671 563.153 119.14 563.153 117.25V114.593C563.153 112.704 564.685 111.172 566.574 111.172ZM566.574 126.608H607.085C608.974 126.608 610.506 128.14 610.506 130.029V132.686C610.506 134.575 608.974 136.107 607.085 136.107H566.574C564.685 136.107 563.153 134.575 563.153 132.686V130.029C563.153 128.14 564.685 126.608 566.574 126.608Z" fill="#E1E5F0"/>
<path d="M402.543 26.156C402.543 20.1084 407.445 15.2058 413.492 15.2058H644.035C650.081 15.2058 654.983 20.1071 654.983 26.156V37.1062H402.543V26.156Z" fill="#E1E5F0"/>
</svg>
