<svg width="431" height="431" viewBox="0 0 431 431" fill="none" xmlns="http://www.w3.org/2000/svg">
<path d="M363.656 141.422C361.932 141.422 360.208 140.762 358.895 139.449L305.02 85.5737C302.387 82.9405 302.387 78.6844 305.02 76.0513C307.653 73.4181 311.909 73.4181 314.542 76.0513L368.417 129.926C371.05 132.559 371.05 136.816 368.417 139.449C367.104 140.762 365.38 141.422 363.656 141.422Z" fill="#5EDB8C"/>
<path d="M282.838 161.591L363.641 242.394L215.505 390.529L134.703 309.727L282.838 161.591Z" fill="#444444"/>
<path d="M205.977 327.196L198.085 319.304C192.825 314.044 192.825 305.518 198.085 300.259L273.321 225.022C278.581 219.763 287.107 219.763 292.366 225.022L300.259 232.915C305.518 238.175 305.518 246.7 300.259 251.96L225.022 327.196C219.763 332.456 211.237 332.456 205.977 327.196Z" fill="#383738"/>
<path d="M282.836 161.581L363.638 242.383L350.174 255.848L269.371 175.045L282.836 161.581Z" fill="#383738"/>
<path d="M376.31 201.216L324.072 148.978C316.179 141.085 303.39 141.085 295.498 148.978L282.844 161.625L363.656 242.437L376.31 229.784C384.196 221.898 384.196 209.102 376.31 201.216Z" fill="#726FF0"/>
<path d="M215.5 404.062C212.052 404.062 208.604 402.749 205.978 400.116L125.165 319.304C119.906 314.044 119.906 305.518 125.165 300.259C130.418 294.999 138.957 294.999 144.21 300.259L225.023 381.071C230.282 386.331 230.282 394.857 225.023 400.116C222.39 402.749 218.948 404.062 215.5 404.062Z" fill="#615EDB"/>
<path d="M363.657 255.906C360.209 255.906 356.767 254.593 354.134 251.96L273.322 171.147C268.062 165.888 268.062 157.362 273.322 152.103C278.581 146.843 287.107 146.843 292.366 152.103L373.179 232.915C378.438 238.175 378.438 246.7 373.179 251.96C370.546 254.593 367.105 255.906 363.657 255.906Z" fill="#615EDB"/>
<path d="M372.364 170.333L354.949 152.917C352.316 150.284 352.316 146.021 354.949 143.395L372.364 125.98C374.997 123.347 379.26 123.347 381.886 125.98L399.302 143.395C401.935 146.028 401.935 150.291 399.302 152.917L381.886 170.333C379.26 172.959 374.99 172.959 372.364 170.333Z" fill="#615EDB"/>
<path d="M356.902 154.841L370.369 168.308L356.902 181.774L343.435 168.308L356.902 154.841Z" fill="#FAB400"/>
<path d="M356.903 154.84L370.37 168.307L363.636 175.04L350.169 161.573L356.903 154.84Z" fill="#DC9600"/>
<path d="M309.781 40.4062C297.814 40.4062 287.066 45.6119 279.665 53.875H53.875C38.9988 53.875 26.9375 65.9363 26.9375 80.8125V148.156C26.9375 155.598 32.9648 161.625 40.4062 161.625C47.8477 161.625 53.875 155.598 53.875 148.156V121.219C53.875 113.777 59.9023 107.75 67.3438 107.75H74.0781C77.7955 107.75 80.8125 110.767 80.8125 114.484V127.953C80.8125 131.671 83.8295 134.688 87.5469 134.688C91.2643 134.688 94.2812 131.671 94.2812 127.953V114.484C94.2812 110.767 97.2982 107.75 101.016 107.75H148.156C155.598 107.75 161.625 113.777 161.625 121.219C161.625 128.66 167.652 134.688 175.094 134.688C182.535 134.688 188.562 128.66 188.562 121.219C188.562 113.777 194.59 107.75 202.031 107.75H279.665C287.066 116.013 297.814 121.219 309.781 121.219C332.099 121.219 350.188 103.13 350.188 80.8125C350.188 58.4948 332.099 40.4062 309.781 40.4062Z" fill="#5EDB8C"/>
<path d="M377.125 114.484C373.401 114.484 370.391 111.467 370.391 107.75V94.2812C370.391 90.5639 373.401 87.5469 377.125 87.5469C380.849 87.5469 383.859 90.5639 383.859 94.2812V107.75C383.859 111.467 380.849 114.484 377.125 114.484Z" fill="#5EDB8C"/>
</svg>
