<svg width="828" height="1080" viewBox="0 0 828 1080" fill="none" xmlns="http://www.w3.org/2000/svg">
<path d="M1273.79 -75.3604C1410.87 106.377 1507.45 312 1480.45 515.546C1454.48 718.054 1305.98 917.446 1094.12 1041.03C882.271 1163.57 607.068 1208.23 398.329 1110.61C188.552 1011.95 44.201 771.017 8.89197 529.047C-26.417 288.115 45.2394 46.1441 191.668 -137.67C338.096 -321.485 557.22 -447.143 756.612 -430.527C957.042 -414.95 1135.66 -257.098 1273.79 -75.3604Z" fill="#5EDB8C"/>
<path d="M1273.79 -75.3604C1410.87 106.377 1507.45 312 1480.45 515.546C1454.48 718.054 1305.98 917.446 1094.12 1041.03C882.271 1163.57 607.068 1208.23 398.329 1110.61C188.552 1011.95 44.201 771.017 8.89197 529.047C-26.417 288.115 45.2394 46.1441 191.668 -137.67C338.096 -321.485 557.22 -447.143 756.612 -430.527C957.042 -414.95 1135.66 -257.098 1273.79 -75.3604Z" fill="url(#paint0_linear)"/>
<defs>
<linearGradient id="paint0_linear" x1="940" y1="-294.5" x2="280.5" y2="897.5" gradientUnits="userSpaceOnUse">
<stop stop-color="#87FF9A"/>
<stop offset="1" stop-color="white" stop-opacity="0"/>
</linearGradient>
</defs>
</svg>
