<svg width="868" height="1059" viewBox="0 0 868 1059" fill="none" xmlns="http://www.w3.org/2000/svg">
<path d="M1210.13 -139.721C1367.9 -39.6446 1443.27 179.274 1411.26 386.082C1378.31 593.884 1238.17 791.35 1029.84 917.941C821.519 1044.53 546.036 1100.14 350.548 1023.72C155.059 947.294 39.6584 739.72 9.59033 550.14C-21.5894 359.78 32.6562 188.3 140.538 66.8021C248.328 -55.5826 410.681 -128.979 611.944 -175.059C812.187 -221.033 1052.45 -238.911 1210.13 -139.721Z" fill="#5EDB8C"/>
<path d="M1210.13 -139.721C1367.9 -39.6446 1443.27 179.274 1411.26 386.082C1378.31 593.884 1238.17 791.35 1029.84 917.941C821.519 1044.53 546.036 1100.14 350.548 1023.72C155.059 947.294 39.6584 739.72 9.59033 550.14C-21.5894 359.78 32.6562 188.3 140.538 66.8021C248.328 -55.5826 410.681 -128.979 611.944 -175.059C812.187 -221.033 1052.45 -238.911 1210.13 -139.721Z" fill="url(#paint0_linear)"/>
<defs>
<linearGradient id="paint0_linear" x1="651.36" y1="-191.004" x2="779.584" y2="1038.9" gradientUnits="userSpaceOnUse">
<stop stop-color="#87FF9A"/>
<stop offset="1" stop-color="white" stop-opacity="0"/>
</linearGradient>
</defs>
</svg>
