<svg width="681" height="632" viewBox="0 0 681 632" fill="none" xmlns="http://www.w3.org/2000/svg">
<path d="M649.34 390.677V321.234C649.34 279.123 649.34 237.11 649.34 195.096V130.675C649.34 128.357 609.281 126.425 561.113 126.425H551.074C503.002 126.425 462.846 128.357 462.846 130.675V390.87C462.846 393.188 502.905 395.12 551.074 395.12H561.113C609.184 395.216 649.34 393.188 649.34 390.677Z" fill="#D8DEED"/>
<path d="M364.482 629.528L364.868 629.721C366.895 630.783 369.502 630.204 370.467 628.369L483.503 420.618C484.565 418.686 483.696 416.272 481.669 415.209L481.283 415.016C479.256 413.954 476.649 414.533 475.684 416.368L447.69 467.751C429.446 501.362 411.202 534.876 392.862 568.487L362.648 623.926C361.586 625.857 362.455 628.369 364.482 629.528Z" fill="#D8DEED"/>
<path d="M645.189 411.635H574.433C531.574 411.635 488.715 411.635 445.953 411.635H380.313C377.996 411.635 375.969 413.567 375.969 415.885V416.368C375.969 418.686 377.899 420.618 380.313 420.618H645.383C647.699 420.618 649.726 418.686 649.726 416.368V415.885C649.726 413.567 647.699 411.635 645.189 411.635Z" fill="#D8DEED"/>
<path d="M679.65 623.926L649.437 568.487C631.192 534.876 612.948 501.361 594.608 467.75L566.614 416.368C565.649 414.533 563.043 413.857 561.016 415.016L560.629 415.209C558.602 416.272 557.734 418.783 558.795 420.618L671.831 628.368C672.797 630.204 675.403 630.88 677.43 629.721L677.816 629.527C679.843 628.368 680.712 625.857 679.65 623.926Z" fill="#D8DEED"/>
<path d="M197.517 382.898C204.456 386.348 206.826 389.763 207.195 392.75C207.736 397.775 206.563 401.813 203.764 408.453C198.348 421.734 193.745 435.194 190.044 449.013C188.96 448.78 187.879 448.534 186.801 448.275C189.062 456.903 188.983 463.501 188.983 463.501C87.5619 463.501 37.6973 463.501 39.3888 463.501C41.9261 463.501 60.2663 413.812 124.984 408.761C126.843 408.614 128.649 408.52 130.401 408.476C130.797 406.829 131.477 405.341 132.712 403.091C130 396.441 127.912 380.854 127.204 374.364C127.204 374.097 127.295 373.83 127.386 373.564C127.75 372.852 128.751 372.496 129.57 372.852L150.056 382.898C153.554 381.618 157.255 380.453 161.159 379.289C164.856 378.158 168.553 377.195 172.029 376.31L179.363 357.243C179.634 356.513 180.535 356.057 181.257 356.422C181.527 356.513 181.708 356.696 181.888 356.969C185.684 362.328 195.009 375.99 197.517 382.898Z" fill="#FFCB3D"/>
<path d="M35.5009 457.379C34.7372 452.546 36.7746 449.604 41.6128 448.555C61.5668 447.45 79.3217 448.932 94.8777 453.001C110.434 457.07 119.493 460.622 122.057 463.657H41.6128C38.1973 463.657 35.5009 460.888 35.5009 457.379ZM193.978 424.678C196.304 421.98 203.462 410.38 203.462 410.38C203.462 410.38 195.588 434.299 190.846 449.136C191.115 447.877 187.357 457.949 186.909 455.341V455.251C186.283 452.284 183.867 450.125 180.825 449.946C177.962 449.766 174.92 449.676 171.699 449.676C167.583 449.676 163.377 449.946 159.262 450.485L153.267 432.231C159.083 435.198 165.704 436.277 172.146 435.738C174.383 435.558 176.53 435.109 178.678 434.479C184.583 432.771 189.862 429.264 193.978 424.678ZM172.453 402.606C173.723 404.029 175.792 404.521 177.585 403.71C179.217 402.76 180.082 400.922 179.737 399.053C179.591 398.267 180.111 397.511 180.897 397.365C181.683 397.22 182.439 397.74 182.584 398.526C183.16 401.64 181.692 404.714 178.962 406.26L178.862 406.312C176.436 407.446 173.698 407.13 171.624 405.707C170.976 407.263 169.684 408.593 167.945 409.379C164.449 410.708 160.53 409.4 158.766 406.309C158.37 405.614 158.611 404.729 159.306 404.333C160 403.936 160.885 404.178 161.281 404.873C162.324 406.699 164.728 407.503 166.834 406.705C168.428 405.983 169.339 404.505 169.175 403.058C169.17 403.048 169.165 403.039 169.16 403.03C168.741 402.301 168.657 401.389 168.741 400.569C168.824 399.931 169.16 399.384 169.579 399.111C170.417 398.473 171.674 398.838 172.177 399.749C172.621 400.626 172.657 401.694 172.453 402.606ZM148.001 402.646C149.018 404.56 148.085 407.294 147.068 407.477C146.305 407.568 145.372 406.565 145.033 405.927C144.609 405.198 144.524 404.287 144.609 403.467C144.693 402.829 145.033 402.282 145.457 402.008C146.305 401.371 147.492 401.735 148.001 402.646ZM191.472 387.193C192.414 389.107 191.558 391.659 190.53 392.023C189.76 392.114 188.818 391.112 188.475 390.474C188.047 389.745 187.962 388.834 188.047 388.013C188.133 387.375 188.475 386.829 188.903 386.555C189.76 385.917 190.959 386.282 191.472 387.193Z" fill="#DE6903"/>
<path d="M312.045 622.357H463.804C466.076 622.357 467.918 624.2 467.918 626.474C467.918 628.747 466.076 630.59 463.804 630.59H312.045C309.773 630.59 307.931 628.747 307.931 626.474C307.931 624.2 309.773 622.357 312.045 622.357ZM482.264 622.357H578.214C580.486 622.357 582.328 624.2 582.328 626.474C582.328 628.747 580.486 630.59 578.214 630.59H482.264C479.992 630.59 478.15 628.747 478.15 626.474C478.15 624.2 479.992 622.357 482.264 622.357Z" fill="#FF5645"/>
<path d="M577.141 622.358H482.462L490.053 572.391H557.526L577.141 622.358ZM466.351 623.241C465.651 622.688 464.766 622.358 463.804 622.358H312.045C311.895 622.358 311.747 622.366 311.602 622.381C311.549 621.96 311.524 621.462 311.535 620.863C311.639 620.225 311.652 619.493 311.851 618.765C313.045 614.394 314.492 611.491 318.724 608.91C322.956 606.33 327.276 604.025 331.778 601.999C348.38 594.324 354.054 594.422 364.97 587.381C369.488 584.44 373.641 581.035 377.521 577.35C380.107 574.894 385.698 570.904 394.293 565.379L460.899 565.58L466.351 623.241Z" fill="#474961"/>
<path d="M576.362 407.345C576.209 452.102 574.672 511.559 574.142 532.012C574.049 534.861 574.421 542.569 568.84 547.429C567.259 548.853 565.678 549.439 562.701 550.696C560.376 551.702 549.958 554.718 529.122 556.394C527.82 556.477 526.425 556.561 525.03 556.477C503.543 555.723 498.241 554.383 489.963 552.037C484.475 550.529 480.475 545.837 479.917 540.307C477.313 515.925 470.15 449.483 469.592 443.618C468.848 436.161 468.197 427.699 467.639 418.064L467.343 413.553L441.602 403.401C452.352 444.577 462.781 487.226 472.104 529.624C472.569 531.702 473.406 536.377 470.988 540.792C466.523 549.19 454.896 548.757 427.084 552.047C394.342 555.943 380.669 560.011 373.228 551.7C370.716 549.017 369.879 546.246 369.6 544.948C362.81 511.271 329.138 413.531 316.023 343.407C316.023 343.234 315.93 343.147 315.93 342.974C311.744 320.379 327.464 299.082 350.811 296.225C358.531 295.273 365.507 294.355 373.228 293.403C375.567 293.129 377.901 293.05 380.209 293.154L495.458 291.154C563.812 290.559 554.4 282.621 575.774 292.46C590.023 299.019 599.725 317.694 604.879 348.483C606.725 371.893 597.219 391.514 576.362 407.345Z" fill="#A339FF"/>
<path opacity="0.176986" d="M576.48 407.256C576.488 404.917 576.492 402.62 576.492 400.37C576.492 382.942 576.585 367.945 576.771 358.309C576.957 350.685 578.352 308.792 560.307 300.078C558.726 299.324 557.145 298.738 553.982 297.649C551.471 296.811 538.448 292.454 521.706 293.124C510.823 293.543 494.452 294.213 480.965 304.687C462.361 319.181 462.826 342.055 463.012 345.741L467.464 413.601L441.737 403.455C434.57 376.001 427.26 349.202 420.039 323.566C415.106 306.119 398.618 294.043 380.532 293.148L495.458 291.154C563.812 290.559 554.4 282.621 575.774 292.46C590.023 299.019 599.725 317.694 604.88 348.483C606.722 371.849 597.255 391.44 576.48 407.256Z" fill="#444444"/>
<path d="M478.45 120.551C479.569 120.068 480.714 119.638 481.883 119.263L501.733 112.632C502.884 112.422 504.029 112.238 505.169 112.081C506.734 110.285 509.921 108.762 515.446 107.065C535.069 100.931 560.114 111.131 569.034 133.988C576.808 153.908 587.135 176.407 586.173 176.703C585.967 176.766 581.461 179.993 575.286 181.99C584.216 215.712 589.028 238.286 589.721 249.713C591.101 272.471 583.451 287.725 557.525 289.658C531.599 291.591 495.515 294.314 491.275 286.767C488.549 281.915 475.736 251.957 452.835 196.892C444.273 199.664 439.802 201.084 439.422 201.15C438.227 201.358 434.164 187.965 431.518 166.789C428.483 142.489 443.213 122.223 467.623 118.077C471.659 117.375 475.268 118.2 478.45 120.551Z" fill="#FF5645"/>
<path opacity="0.176986" d="M478.509 120.595C454.23 130.671 442.175 165.178 450.26 190.696C451.154 192.788 452.034 194.846 452.9 196.871C444.296 199.657 439.803 201.084 439.422 201.15C438.227 201.358 434.164 187.965 431.518 166.789C428.483 142.489 443.213 122.223 467.623 118.077C471.684 117.371 475.312 118.21 478.509 120.595Z" fill="#444444"/>
<path d="M438.432 123.435C438.432 123.435 436.665 130.387 446.059 128.466C455.454 126.545 458.151 125.631 458.151 125.631L455.733 119.319L438.432 123.435Z" fill="#482D1F"/>
<path d="M491.545 118.545L508.845 199.358L512.956 177.42C534.635 181.669 552.277 183.794 565.883 183.793C565.956 183.793 566.029 183.793 566.102 183.792C563.037 195.525 555.772 246.436 544.47 266.134C530.182 291.035 521.843 293.769 500.745 291.734C498.585 291.526 496.547 291.144 494.624 290.588C495.546 290.889 496.497 291.142 497.477 291.346L388.324 293.025L388.315 293.054L387.983 293.03L387.562 293.037C387.362 293.04 387.166 293.012 386.98 292.956L342.321 289.672C335.155 289.145 328.558 285.57 324.202 279.853L319.183 273.267C317.993 271.705 317.223 269.865 316.947 267.921C316.052 261.64 320.417 255.822 326.695 254.928L340.038 253.026C349.185 251.722 358.471 251.739 367.613 253.076L395.162 257.106C416.079 250.528 443.991 241.89 450.96 240.401L442.306 200.224L452.536 196.207C455.747 203.541 458.769 210.431 461.601 216.876C458.392 186.256 458.753 152.442 454.895 122.404L445.222 122.612C439.455 124.899 427.363 128.741 426.061 120.6C426.061 120.6 442.059 114.105 453.314 109.349L454.151 108.617C454.896 107.977 455.547 107.611 456.477 107.336C456.663 107.245 456.849 107.245 457.035 107.245L457.653 107.156C455.978 107.281 454.801 107.252 454.393 107.207C446.613 106.867 437.077 93.0872 432.49 73.0055C432.066 71.3892 431.92 69.7489 431.681 68.1167L430.508 51.7814C430.184 48.1364 430.887 44.4948 432.464 41.2371C432.617 40.8567 432.778 40.5673 432.939 40.278C433.507 39.311 434.074 38.3439 434.658 37.5591C436.901 34.4278 439.679 32.0768 442.608 30.3558C449.576 26.8179 457.714 25.9341 462.303 26.0902C462.96 26.1255 465.022 26.2235 467.927 26.3408C470.671 26.7475 473.298 26.8888 475.994 26.7487C477.484 26.7123 478.71 27.8924 478.839 29.3504L479.988 52.7581C479.996 52.9312 480.042 53.1754 480.125 53.4907C489.491 49.6795 496.197 51.854 500.242 60.0141C506.309 72.2544 500.815 69.6062 498.117 72.8684C496.173 75.1477 493.752 76.2742 492.124 76.8733C491.821 76.9375 491.511 77.1126 491.237 77.3557L498.523 77.4247L499.811 82.4559L500.285 88.8426L505.072 112.213C505.072 112.213 498.32 115.916 491.545 118.545ZM475.277 104.639L474.729 102.013C474.501 102.109 474.268 102.206 474.032 102.304C466.29 105.541 466.737 105.319 466.197 105.549C465.037 105.905 463.908 106.189 462.836 106.415L471.173 105.232L475.277 104.639ZM551.349 572.656H490.224L491.541 552.448C499.052 554.541 504.948 555.769 525.147 556.477C526.542 556.561 527.937 556.477 529.239 556.394C539.181 555.594 546.751 554.489 552.201 553.443L557.525 572.391L551.349 572.656ZM458.237 548.27L460.899 565.58H393.942L398.358 555.77C405.85 554.912 415.257 553.468 427.201 552.047C441.328 550.376 451.279 549.665 458.237 548.27Z" fill="#DB9E75"/>
<path d="M480.96 103.939L477.445 104.423L475.478 104.708C475.412 104.69 475.345 104.671 475.278 104.651L474.728 102.008L484.711 97.7751C483.366 100.82 482.116 102.875 480.96 103.939Z" fill="#482D1F"/>
<path d="M438.383 71.0292C438.714 72.6535 439.32 75.2643 438.684 76.5127C437.65 78.5299 434.017 74.435 434.298 71.2889C434.462 69.9892 435.062 69.3867 435.803 69.3229C437 69.1281 438.092 69.8606 438.383 71.0292ZM458.151 67.5838C458.482 69.2081 459.088 71.8188 458.452 73.0672C457.418 75.0845 453.785 70.9895 454.066 67.8435C454.23 66.5438 454.83 65.9412 455.571 65.8775C456.768 65.6827 457.86 66.4151 458.151 67.5838Z" fill="#482D1F"/>
<path d="M442.952 70.8343L442.915 80.0198C443.01 81.1469 443.957 82.1228 445.048 82.0273C445.692 82.0224 446.103 81.9864 447.751 81.8109C448.487 81.7325 448.992 81.6821 449.588 81.6299C450.1 81.5851 450.479 81.1408 450.435 80.6375C450.391 80.1342 449.941 79.7626 449.429 79.8074C448.818 79.8608 448.303 79.9123 447.556 79.9919C445.977 80.1601 445.591 80.1938 444.96 80.2013C444.923 80.2018 444.782 80.0563 444.772 79.9396L444.812 70.836C444.815 70.3308 444.4 69.9208 443.886 69.9203C443.372 69.9198 442.954 70.329 442.952 70.8343Z" fill="#482D1F"/>
<path d="M451.457 86.7997C452.09 86.5616 453.608 85.7882 453.712 84.861C453.696 84.6788 453.765 84.3974 453.664 84.3143C453.253 83.8905 452.08 84.3587 450.437 84.7755C447.512 85.4863 445.01 85.7015 445.01 85.7015C445.01 85.7015 445.982 87.1789 446.486 87.5947C447.602 88.6005 450.47 87.2519 451.457 86.7997Z" fill="#482D1F"/>
<path d="M473.929 60.8173L477.012 59.7864C478.773 59.1974 479.672 61.7955 477.911 62.3845L474.828 63.4154L472.503 64.1928C472.766 65.0435 472.944 65.9338 473.026 66.855C473.662 74.0014 468.286 80.3016 461.019 80.9268C454.697 81.4708 449.026 77.5398 447.24 71.8023L445.611 72.0544L444.266 72.2626C444.54 79.144 439.27 85.0937 432.219 85.7003C424.952 86.3256 418.545 81.0391 417.909 73.8926C417.274 66.7462 422.649 60.446 429.916 59.8208C436.434 59.26 442.297 63.4637 443.867 69.5464L445.177 69.3435L445.611 72.0544C444.012 70.8907 444.007 70.8514 444.003 70.812L442.544 69.7512L443.867 69.5464C443.933 69.8003 443.991 70.0576 444.041 70.3179C444.161 69.8493 444.527 69.4443 445.177 69.3435L446.709 69.1065C446.081 61.9653 451.454 55.6721 458.717 55.0473C464.066 54.587 468.949 57.3302 471.407 61.6606L473.929 60.8173ZM442.977 72.4621C442.209 72.5811 441.489 72.0585 441.379 71.3008C441.271 70.5581 441.79 69.8679 442.544 69.7512L445.177 69.3435L446.709 69.1065C446.709 69.1107 446.71 69.1149 446.71 69.1191C446.793 70.0479 446.973 70.9453 447.24 71.8023L445.611 72.0544L442.977 72.4621ZM445.611 72.0544C444.945 72.1575 444.463 71.867 444.207 71.4411L445.611 72.0544ZM460.776 78.1931C466.508 77.6999 470.748 72.7308 470.246 67.0941C469.745 61.4575 464.692 57.2879 458.96 57.781C453.228 58.2742 448.988 63.2433 449.49 68.88C449.991 74.5166 455.044 78.6862 460.776 78.1931ZM430.159 62.5545C424.428 63.0477 420.188 68.0168 420.689 73.6535C421.191 79.2901 426.244 83.4597 431.975 82.9666C437.707 82.4734 441.947 77.5043 441.446 71.8676C441.429 71.6775 441.407 71.4885 441.379 71.3008C440.599 65.9342 435.676 62.0799 430.159 62.5545Z" fill="#482D1F"/>
<path opacity="0.2" d="M497.423 291.346L388.27 293.025L388.261 293.054L387.93 293.03L387.508 293.037C387.308 293.04 387.112 293.012 386.927 292.956L342.267 289.672C335.101 289.145 328.505 285.57 324.148 279.853L319.129 273.267C317.94 271.705 317.17 269.865 316.893 267.921C315.999 261.64 320.363 255.822 326.641 254.928L339.985 253.026C349.131 251.722 358.417 251.739 367.559 253.076L395.109 257.106C416.025 250.528 443.937 241.89 450.906 240.401L442.253 200.224L452.482 196.207C455.881 203.97 459.067 211.234 462.042 218C462.56 222.026 463.161 226.033 463.864 230.016C470.733 265.954 478.693 287.432 497.423 291.346Z" fill="#8C2A00"/>
<path d="M507.879 199.84C507.66 199.113 508.082 198.35 508.82 198.134C509.559 197.919 510.336 198.333 510.555 199.06L519.763 229.612C519.982 230.338 519.561 231.102 518.822 231.317C518.083 231.533 517.307 231.118 517.088 230.392L507.879 199.84ZM566.158 184.913C565.387 184.908 564.767 184.289 564.773 183.531C564.779 182.773 565.408 182.163 566.179 182.169C570.062 182.198 573.706 181.641 577.116 180.501C577.846 180.257 578.638 180.641 578.886 181.359C579.134 182.076 578.744 182.855 578.014 183.099C574.302 184.34 570.348 184.944 566.158 184.913Z" fill="#482D1F"/>
<path d="M488.951 76.5421C490.365 76.1373 494.549 75.2337 497.118 72.1279C499.823 68.9568 501.154 63.9757 499.157 59.3727C497.362 54.9361 492.582 51.5826 488.142 52.0564C485.649 52.3628 483.715 53.7228 483.454 53.929C480.397 56.3039 479.174 59.3475 479.174 59.3475L478.435 61.4722C478.067 60.9978 477.714 60.5538 477.377 60.1448C470.259 53.5951 466.149 49.0509 458.937 42.5091C455.312 43.7393 432.036 51.8869 430.287 51.1191C430.287 41.825 433.743 38.8333 434.327 38.0485C436.569 34.9172 439.848 31.8785 442.776 30.1574C449.745 26.6196 457.883 25.7358 462.472 25.8919C463.129 25.9272 465.191 26.0252 468.096 26.1425C468.938 26.1619 469.781 26.1813 470.808 26.1847C473.233 26.1597 475.103 26.1825 476.223 26.1779C490.389 25.8774 495.726 23.949 503.101 27.0792C503.531 27.2743 504.137 27.5552 504.852 27.942C505.341 26.6765 505.914 25.499 506.483 24.4087C522.078 -5.30671 541.018 1.41989 541.018 1.53011C541.018 1.64033 555.37 1.64033 559.042 16.0348C559.408 17.4651 561.981 27.5685 557.867 35.8989C552.348 46.7988 535.888 53.5093 517.161 48.9289C517.391 52.1162 517.169 54.7269 517.072 56.0867C516.051 66.6424 510.2 73.2979 508.489 76.1079C506.208 79.8547 503.39 83.625 500.035 87.419C495.852 84.947 492.648 82.062 490.425 78.764C489.944 78.0383 489.452 77.2953 488.951 76.5421Z" fill="#482D1F"/>
<path d="M303.527 268.14C314.027 257.876 335.461 249.83 370.877 270.106C376.278 273.098 374.308 282.5 368.32 282.484L306.615 282.067C301.978 282.099 300.026 271.593 303.527 268.14Z" fill="#474961"/>
<path d="M180.138 463.655H193.266C200.035 465.748 204.305 470.186 206.074 476.97C207.844 483.753 203.574 490.261 193.266 496.493L193.16 496.47L193.169 496.493H30.9998C20.691 490.261 16.4215 483.753 18.1912 476.97C19.9609 470.186 24.2304 465.748 30.9998 463.655H180.138Z" fill="#3ABF7C"/>
<path d="M13.7211 494.425C13.8806 494.413 14.0415 494.408 14.2038 494.408H206.297C210.029 494.408 213.054 497.435 213.054 501.168C213.054 504.902 210.029 507.929 206.297 507.929H14.2038C14.0415 507.929 13.8806 507.924 13.7211 507.912V624.312C13.7211 628.046 10.6959 631.073 6.96409 631.073C3.23227 631.073 0.207031 628.046 0.207031 624.312L0.207031 289.168C0.207031 285.915 2.50378 283.198 5.56349 282.553C6.42909 282.149 7.39429 281.924 8.41203 281.924H582.762C586.494 281.924 589.519 284.951 589.519 288.685C589.519 292.419 586.494 295.446 582.762 295.446H13.7211V494.425Z" fill="#D8DEED"/>
<path d="M147.1 267.439L156.383 229.962H86.6985C79.4588 229.962 73.4728 224.457 73.4728 217.793V111.648C73.3775 104.887 79.2658 99.3818 86.602 99.3818H298.677C305.917 99.3818 311.902 104.887 311.902 111.551V217.793C311.902 224.457 305.917 229.962 298.677 229.962H213.755L209.923 267.439H235.065C238.927 267.439 241.919 270.53 241.919 274.296C241.919 278.16 238.83 281.154 235.065 281.154H127.435C123.574 281.154 120.582 278.063 120.582 274.296C120.388 270.53 123.574 267.439 127.435 267.439H147.1Z" fill="#474961"/>
<path fill-rule="evenodd" clip-rule="evenodd" d="M216.632 202.647L216.918 267.536H209.997L216.632 202.647Z" fill="white"/>
</svg>
