<svg width="726" height="726" viewBox="0 0 726 726" fill="none" xmlns="http://www.w3.org/2000/svg">
<path d="M726 555.245H0V555.608H726V555.245Z" fill="#EBEBEB"/>
<path d="M124.262 569.068H76.1719V569.431H124.262V569.068Z" fill="#EBEBEB"/>
<path d="M261.114 565.133H211.02V565.496H261.114V565.133Z" fill="#EBEBEB"/>
<path d="M190.938 576.081H110.468V576.444H190.938V576.081Z" fill="#EBEBEB"/>
<path d="M651.701 577.417H588.989V577.78H651.701V577.417Z" fill="#EBEBEB"/>
<path d="M571.115 568.342H537.864V568.705H571.115V568.342Z" fill="#EBEBEB"/>
<path d="M420.078 574.164H284.055V574.527H420.078V574.164Z" fill="#EBEBEB"/>
<path d="M344.124 490.486H63.7569C61.5605 490.482 59.4554 489.607 57.9037 488.052C56.352 486.498 55.4805 484.391 55.4805 482.195V88.0783C55.4996 85.8945 56.3795 83.8065 57.9292 82.2677C59.4788 80.7289 61.573 79.8637 63.7569 79.86H344.124C346.322 79.86 348.431 80.7335 349.986 82.2883C351.541 83.8432 352.414 85.952 352.414 88.1509V482.195C352.414 484.394 351.541 486.502 349.986 488.057C348.431 489.612 346.322 490.486 344.124 490.486V490.486ZM63.7569 80.1504C61.6568 80.1542 59.644 80.9912 58.1604 82.4775C56.6767 83.9639 55.8435 85.9782 55.8435 88.0783V482.195C55.8435 484.295 56.6767 486.309 58.1604 487.795C59.644 489.282 61.6568 490.119 63.7569 490.123H344.124C346.225 490.119 348.239 489.282 349.725 487.796C351.211 486.31 352.048 484.296 352.051 482.195V88.0783C352.048 85.9769 351.211 83.9626 349.725 82.4767C348.239 80.9907 346.225 80.1542 344.124 80.1504H63.7569Z" fill="#EBEBEB"/>
<path d="M658.206 490.486H377.825C375.627 490.482 373.521 489.607 371.967 488.053C370.413 486.499 369.538 484.392 369.534 482.195V88.0783C369.557 85.8932 370.44 83.8052 371.992 82.2668C373.544 80.7284 375.64 79.8637 377.825 79.86H658.206C660.388 79.8675 662.478 80.7345 664.025 82.2728C665.571 83.8112 666.449 85.897 666.468 88.0783V482.195C666.468 484.389 665.599 486.493 664.05 488.047C662.502 489.601 660.4 490.478 658.206 490.486V490.486ZM377.825 80.1504C375.724 80.1542 373.709 80.9907 372.223 82.4767C370.738 83.9626 369.901 85.9769 369.897 88.0783V482.195C369.901 484.296 370.738 486.31 372.223 487.796C373.709 489.282 375.724 490.119 377.825 490.123H658.206C660.308 490.119 662.322 489.282 663.808 487.796C665.294 486.31 666.13 484.296 666.134 482.195V88.0783C666.13 85.9769 665.294 83.9626 663.808 82.4767C662.322 80.9907 660.308 80.1542 658.206 80.1504H377.825Z" fill="#EBEBEB"/>
<path d="M294.378 550.744H215.767V555.245H294.378V550.744Z" fill="#E0E0E0"/>
<path d="M248.002 452.429L226.222 550.744H283.794L262.013 452.429C261.596 450.891 260.683 449.533 259.417 448.565C258.151 447.597 256.601 447.073 255.008 447.073C253.414 447.073 251.864 447.597 250.598 448.565C249.332 449.533 248.42 450.891 248.002 452.429V452.429Z" fill="#E0E0E0"/>
<path d="M266.457 471.944H243.69L238.187 496.86H271.96L266.457 471.944Z" fill="#F5F5F5"/>
<path d="M272.918 501.245H237.228L234.426 513.863H275.706L272.918 501.245Z" fill="#F5F5F5"/>
<path d="M105.299 555.245H116.973L151.356 363H139.668L105.299 555.245Z" fill="#E0E0E0"/>
<path d="M411.134 555.245H422.822L457.206 363H445.517L411.134 555.245Z" fill="#E0E0E0"/>
<path d="M491.589 372.365H105.299V442.236H491.589V372.365Z" fill="#EBEBEB"/>
<path d="M147.175 439.143H107.129L129.345 375.444H169.391L147.175 439.143Z" fill="#FAFAFA"/>
<path d="M227.267 439.143H187.221L209.436 375.444H249.468L227.267 439.143Z" fill="#FAFAFA"/>
<path d="M307.36 439.143H267.313L289.515 375.444H329.561L307.36 439.143Z" fill="#FAFAFA"/>
<path d="M387.437 439.143H347.391L369.606 375.444H409.652L387.437 439.143Z" fill="#FAFAFA"/>
<path d="M467.53 439.143H427.483L449.699 375.444H489.745L467.53 439.143Z" fill="#FAFAFA"/>
<path d="M185.74 555.245H174.051L139.668 363H151.357L185.74 555.245Z" fill="#E0E0E0"/>
<path d="M491.575 555.245H479.901L445.518 363H457.206L491.575 555.245Z" fill="#E0E0E0"/>
<path d="M649.044 549.335H545.952V555.245H649.044V549.335Z" fill="#E0E0E0"/>
<path d="M587.552 423.476L559.746 549.335H635.25L607.444 423.476C605.092 412.833 589.904 412.833 587.552 423.476Z" fill="#E0E0E0"/>
<path d="M612.425 446.011H582.572L575.355 478.681H619.641L612.425 446.011Z" fill="#F5F5F5"/>
<path d="M620.904 484.431H574.092L570.433 500.969H624.563L620.904 484.431Z" fill="#F5F5F5"/>
<path d="M672.276 351.239V393.782C672.274 394.445 672.117 395.097 671.817 395.687C671.517 396.278 671.082 396.789 670.548 397.18C670.014 397.572 669.396 397.832 668.742 397.941C668.089 398.049 667.419 398.002 666.788 397.804L52.5915 203.164C51.7464 202.888 51.0103 202.352 50.4886 201.632C49.967 200.912 49.6865 200.045 49.6875 199.156V156.598C49.6851 155.935 49.8399 155.281 50.1392 154.689C50.4385 154.097 50.8737 153.585 51.4093 153.194C51.9448 152.803 52.5654 152.544 53.2201 152.44C53.8749 152.335 54.5452 152.386 55.1761 152.591L669.372 347.159C670.229 347.438 670.974 347.986 671.497 348.72C672.019 349.455 672.293 350.337 672.276 351.239Z" fill="#EBEBEB"/>
<path d="M623.939 380.976L657.756 391.692L638.996 340.857L605.193 330.141L623.939 380.976Z" fill="#FAFAFA"/>
<path d="M556.32 359.544L590.137 370.26L571.377 319.425L537.574 308.71L556.32 359.544Z" fill="#FAFAFA"/>
<path d="M488.7 338.127L522.517 348.828L503.758 297.994L469.94 287.278L488.7 338.127Z" fill="#FAFAFA"/>
<path d="M421.08 316.681L454.897 327.411L436.137 276.562L402.32 265.847L421.08 316.681Z" fill="#FAFAFA"/>
<path d="M353.46 295.264L387.263 305.98L368.517 255.131L334.7 244.415L353.46 295.264Z" fill="#FAFAFA"/>
<path d="M285.841 273.833L319.643 284.548L300.898 233.699L267.081 222.984L285.841 273.833Z" fill="#FAFAFA"/>
<path d="M218.206 252.401L252.023 263.117L233.263 212.268L199.461 201.552L218.206 252.401Z" fill="#FAFAFA"/>
<path d="M150.587 230.97L184.404 241.685L165.644 190.836L131.842 180.121L150.587 230.97Z" fill="#FAFAFA"/>
<path d="M82.968 209.538L116.785 220.254L98.0252 169.405L64.2227 158.689L82.968 209.538Z" fill="#FAFAFA"/>
<path d="M363 620.817C518.484 620.817 644.528 613.458 644.528 604.38C644.528 595.303 518.484 587.944 363 587.944C207.516 587.944 81.4717 595.303 81.4717 604.38C81.4717 613.458 207.516 620.817 363 620.817Z" fill="#F5F5F5"/>
<path d="M474.035 591.792H457.293V87.2942C457.293 84.579 474.035 84.579 474.035 87.2942V591.792Z" fill="#263238"/>
<path d="M474.035 276.751L457.293 280.12V256.96H474.035V276.751Z" fill="#262626"/>
<path d="M589.904 104.221L354.98 86.7629C345.383 86.0498 337.025 93.2512 336.312 102.848L326.508 234.776C325.795 244.372 332.997 252.73 342.593 253.443L577.518 270.901C587.114 271.614 595.472 264.413 596.185 254.816L605.989 122.888C606.702 113.292 599.501 104.934 589.904 104.221Z" fill="white"/>
<path d="M578.81 273.165C578.331 273.165 577.838 273.165 577.358 273.165L342.425 255.741C337.248 255.34 332.439 252.907 329.05 248.973C325.66 245.039 323.964 239.924 324.333 234.745L334.148 102.816C334.546 97.6364 336.977 92.8246 340.911 89.4319C344.845 86.0392 349.962 84.3415 355.144 84.7097L590.078 102.134C595.255 102.535 600.063 104.968 603.453 108.901C606.842 112.835 608.538 117.95 608.17 123.13L598.354 255.058C597.978 259.985 595.759 264.589 592.14 267.953C588.52 271.317 583.766 273.193 578.825 273.208L578.81 273.165ZM353.663 88.9205C349.812 88.9358 346.109 90.4037 343.293 93.031C340.477 95.6583 338.757 99.2513 338.475 103.092L328.66 235.021C328.379 239.033 329.694 242.993 332.318 246.041C334.941 249.089 338.662 250.978 342.672 251.298L577.605 268.722C581.634 269.01 585.614 267.692 588.675 265.056C591.735 262.42 593.628 258.679 593.94 254.652L603.756 122.723C604.052 118.692 602.737 114.708 600.099 111.646C597.461 108.583 593.716 106.693 589.686 106.388L354.752 88.9641C354.433 88.935 354.041 88.9205 353.663 88.9205Z" fill="#615EDB"/>
<path d="M417.362 156.889L387.857 154.682L388.845 141.367L420.963 108.479L435.091 109.524L432.419 145.36L439.679 145.912L438.75 158.471L431.49 157.934L430.677 168.839L416.563 167.779L417.362 156.889ZM418.306 144.314L419.627 125.961L402.711 143.153L418.306 144.314Z" fill="#615EDB"/>
<path d="M445.241 140.365C446.074 129.272 448.668 121.687 453.024 117.612C457.38 113.537 463.623 111.77 471.755 112.312C475.049 112.461 478.289 113.198 481.323 114.49C483.549 115.494 485.549 116.936 487.204 118.73C488.587 120.275 489.732 122.017 490.601 123.899C491.387 125.854 491.933 127.897 492.228 129.983C493 134.514 493.209 139.122 492.852 143.704C492.049 154.294 489.682 161.903 485.752 166.53C481.822 171.157 475.472 173.151 466.702 172.512C462.596 172.379 458.58 171.274 454.984 169.289C452.054 167.473 449.662 164.906 448.058 161.854C446.636 159.02 445.745 155.949 445.43 152.794C444.938 148.669 444.875 144.503 445.241 140.365V140.365ZM461.3 141.585C460.748 149.019 461.029 154.144 462.142 156.961C463.246 159.764 465.046 161.317 467.544 161.462C469.131 161.574 470.697 161.052 471.9 160.01C473.41 158.587 474.474 156.756 474.963 154.74C475.936 150.937 476.515 147.045 476.691 143.124C477.262 135.38 476.991 130.128 475.878 127.369C475.503 126.149 474.766 125.071 473.765 124.278C472.765 123.485 471.547 123.014 470.274 122.926C469 122.806 467.721 123.094 466.622 123.75C465.523 124.405 464.661 125.393 464.161 126.571C462.805 129.243 461.852 134.247 461.3 141.585Z" fill="#615EDB"/>
<path d="M516.185 133.584L501.07 129.707C502.423 125.283 505.325 121.494 509.245 119.035C513.059 116.692 518.281 115.773 524.912 116.276C532.52 116.847 537.917 118.677 541.101 121.765C542.631 123.152 543.82 124.873 544.576 126.795C545.331 128.716 545.633 130.786 545.457 132.843C545.301 135.282 544.399 137.614 542.873 139.523C541.086 141.666 538.81 143.35 536.237 144.43C538.018 144.957 539.711 145.745 541.261 146.768C543.069 148.058 544.507 149.8 545.428 151.821C546.393 154.056 546.768 156.5 546.517 158.921C546.211 162.34 545.014 165.619 543.047 168.432C541.036 171.41 538.179 173.716 534.843 175.053C530.569 176.589 525.998 177.12 521.485 176.607C517.209 176.445 513.001 175.495 509.07 173.804C506.217 172.427 503.759 170.348 501.927 167.764C500.008 164.933 498.684 161.742 498.035 158.384L514.385 157.44C514.486 159.968 515.346 162.407 516.853 164.439C518.235 165.845 520.109 166.661 522.08 166.715C524.051 166.769 525.966 166.057 527.424 164.729C529.07 163.074 530.016 160.849 530.066 158.515C530.394 156.24 529.809 153.928 528.44 152.082C527.764 151.275 526.923 150.622 525.974 150.166C525.025 149.711 523.99 149.463 522.937 149.44C521.149 149.389 519.362 149.575 517.623 149.992L519.321 138.477C520.01 138.645 520.708 138.766 521.412 138.84C522.386 138.941 523.369 138.848 524.306 138.566C525.243 138.285 526.115 137.82 526.872 137.199C527.594 136.647 528.189 135.947 528.617 135.145C529.045 134.344 529.297 133.46 529.355 132.553C529.447 131.779 529.383 130.995 529.166 130.247C528.949 129.498 528.584 128.801 528.092 128.197C527.546 127.614 526.888 127.147 526.156 126.825C525.425 126.503 524.636 126.332 523.837 126.324C522.984 126.235 522.122 126.318 521.302 126.568C520.482 126.817 519.719 127.228 519.06 127.776C517.512 129.36 516.506 131.393 516.185 133.584V133.584Z" fill="#615EDB"/>
<path d="M395.045 179.772L417.58 181.5L417.144 187.308L403.045 186.263L402.711 190.619L415.779 191.606L415.358 197.153L402.29 196.18L401.898 201.538L416.418 202.627L415.968 208.783L393.026 207.07L395.045 179.772Z" fill="#615EDB"/>
<path d="M420.601 209.088L422.633 181.878L436.645 182.908C438.659 182.989 440.65 183.366 442.555 184.027C443.876 184.56 444.98 185.521 445.691 186.756C446.366 188.054 446.692 189.504 446.636 190.966C446.58 192.427 446.144 193.849 445.372 195.091C444.629 196.147 443.629 196.996 442.468 197.559C441.507 198.002 440.483 198.292 439.433 198.416C440.192 198.699 440.906 199.09 441.553 199.577C442.026 200.038 442.441 200.555 442.787 201.117C443.195 201.673 443.55 202.266 443.847 202.888L447.332 211.077L437.821 210.366L433.944 201.654C433.648 200.831 433.183 200.08 432.58 199.447C432.011 198.981 431.31 198.707 430.576 198.663H429.835L429.008 209.712L420.601 209.088ZM430.256 193.523L433.799 193.784C434.554 193.789 435.308 193.721 436.05 193.581C436.608 193.519 437.124 193.255 437.502 192.84C437.88 192.407 438.105 191.861 438.141 191.287C438.194 190.911 438.16 190.529 438.042 190.169C437.923 189.809 437.724 189.481 437.458 189.21C436.561 188.572 435.481 188.241 434.38 188.266L430.677 187.99L430.256 193.523Z" fill="#615EDB"/>
<path d="M450.119 211.237L452.137 184.026L466.164 185.072C468.172 185.149 470.158 185.521 472.059 186.175C473.384 186.709 474.492 187.67 475.21 188.905C475.744 189.815 476.085 190.825 476.214 191.873C476.342 192.92 476.255 193.982 475.957 194.995C475.659 196.007 475.157 196.947 474.481 197.758C473.806 198.569 472.972 199.232 472.03 199.708C471.069 200.15 470.045 200.439 468.995 200.565C469.752 200.852 470.466 201.243 471.115 201.726C471.577 202.197 471.99 202.713 472.349 203.265C472.759 203.817 473.11 204.411 473.395 205.037L476.879 213.226L467.383 212.529L463.507 203.817C463.209 202.995 462.744 202.244 462.142 201.61C461.57 201.14 460.863 200.866 460.123 200.826H459.383L458.57 211.876L450.119 211.237ZM459.775 195.686L463.318 195.947C464.072 195.944 464.825 195.876 465.568 195.744C466.132 195.689 466.652 195.419 467.02 194.989C467.409 194.566 467.639 194.023 467.674 193.45C467.724 193.073 467.689 192.689 467.571 192.327C467.452 191.965 467.254 191.634 466.991 191.359C466.09 190.718 465.004 190.392 463.899 190.43L460.283 190.212L459.775 195.686Z" fill="#615EDB"/>
<path d="M478.941 199.723C478.892 197.814 479.267 195.917 480.039 194.171C480.81 192.424 481.959 190.87 483.403 189.62C484.847 188.37 486.55 187.456 488.39 186.944C490.23 186.431 492.16 186.332 494.042 186.655C498.572 186.984 501.96 188.46 504.206 191.083C505.374 192.546 506.234 194.23 506.733 196.035C507.232 197.839 507.361 199.726 507.11 201.581C507.014 204.286 506.261 206.927 504.918 209.277C503.716 211.187 501.979 212.702 499.923 213.633C497.509 214.71 494.858 215.145 492.227 214.896C489.599 214.795 487.027 214.1 484.706 212.863C482.723 211.687 481.139 209.941 480.161 207.854C479.029 205.303 478.607 202.493 478.941 199.723ZM487.348 200.376C487.009 202.455 487.393 204.587 488.437 206.416C488.934 207.023 489.548 207.523 490.243 207.886C490.937 208.249 491.698 208.467 492.48 208.528C493.261 208.589 494.047 208.492 494.789 208.241C495.532 207.99 496.216 207.592 496.801 207.07C497.875 205.966 498.529 203.904 498.747 200.855C499.079 198.846 498.677 196.784 497.614 195.047C497.133 194.421 496.519 193.909 495.816 193.55C495.112 193.191 494.338 192.993 493.548 192.971C492.78 192.876 492 192.958 491.268 193.209C490.536 193.461 489.871 193.876 489.323 194.423C487.982 196.111 487.282 198.221 487.348 200.376V200.376Z" fill="#615EDB"/>
<path d="M510.77 215.753L512.788 188.528L526.8 189.573C528.814 189.654 530.805 190.031 532.709 190.691C534.01 191.227 535.093 192.183 535.787 193.406C536.564 194.771 536.894 196.346 536.731 197.908C536.663 199.28 536.226 200.609 535.468 201.755C534.726 202.808 533.726 203.653 532.564 204.209C531.603 204.654 530.58 204.948 529.529 205.081C530.95 205.514 532.15 206.475 532.883 207.767C533.289 208.327 533.639 208.925 533.929 209.553L537.414 217.742L527.918 217.03L524.041 208.318C523.739 207.499 523.275 206.748 522.676 206.111C522.1 205.648 521.395 205.374 520.658 205.327H519.917L519.089 216.377L510.77 215.753ZM520.411 200.187L523.954 200.449C524.714 200.454 525.472 200.386 526.219 200.245C526.782 200.191 527.302 199.92 527.671 199.49C528.061 199.069 528.292 198.525 528.324 197.951C528.371 197.576 528.334 197.195 528.216 196.836C528.098 196.477 527.902 196.149 527.642 195.875C526.743 195.228 525.656 194.896 524.549 194.931L520.861 194.655L520.411 200.187Z" fill="#615EDB"/>
<path d="M366.992 237.17L368.836 212.341L385.592 213.589L385.375 216.493L371.9 215.491L371.334 223.172L382.95 224.044L382.732 226.948L371.116 226.076L370.274 237.358L366.992 237.17Z" fill="#263238"/>
<path d="M387.916 226.512C387.974 222.959 389.423 219.57 391.952 217.074C393.134 215.992 394.532 215.174 396.054 214.673C397.576 214.173 399.187 214.001 400.78 214.17C402.963 214.302 405.067 215.03 406.864 216.275C408.605 217.491 409.949 219.193 410.727 221.169C411.565 223.325 411.893 225.646 411.685 227.949C411.547 230.292 410.85 232.568 409.652 234.585C408.567 236.43 406.94 237.896 404.991 238.781C403.071 239.665 400.956 240.04 398.849 239.87C396.64 239.739 394.511 238.99 392.707 237.707C390.972 236.474 389.639 234.757 388.874 232.77C388.085 230.783 387.758 228.644 387.916 226.512V226.512ZM391.299 226.817C390.961 229.39 391.638 231.994 393.186 234.077C393.912 234.954 394.808 235.676 395.82 236.198C396.831 236.72 397.938 237.031 399.074 237.114C400.209 237.197 401.35 237.049 402.427 236.679C403.504 236.309 404.494 235.726 405.34 234.963C407.199 233.002 408.238 230.405 408.244 227.703C408.423 225.888 408.21 224.056 407.619 222.33C407.1 220.847 406.15 219.552 404.89 218.613C403.618 217.681 402.107 217.132 400.534 217.03C399.424 216.931 398.306 217.053 397.244 217.39C396.182 217.726 395.198 218.27 394.348 218.991C392.606 220.53 391.575 223.143 391.299 226.875V226.817Z" fill="#263238"/>
<path d="M415.039 240.742L416.898 215.912L427.904 216.74C429.617 216.791 431.308 217.145 432.899 217.786C434.025 218.32 434.936 219.221 435.483 220.341C436.089 221.523 436.351 222.851 436.238 224.174C436.201 224.999 436 225.809 435.649 226.556C435.298 227.304 434.802 227.975 434.191 228.53C432.645 229.764 430.724 230.435 428.746 230.432C429.434 230.807 430.068 231.27 430.634 231.812C431.597 232.881 432.43 234.061 433.116 235.326L436.935 242.411L432.797 242.092L429.893 236.691C429.051 235.122 428.339 233.932 427.773 233.09C427.362 232.413 426.842 231.81 426.234 231.304C425.795 230.969 425.305 230.709 424.782 230.534C424.185 230.397 423.578 230.31 422.967 230.273L419.148 229.997L418.335 241.018L415.039 240.742ZM419.395 227.122L426.452 227.645C427.641 227.78 428.844 227.711 430.009 227.441C430.823 227.233 431.544 226.757 432.057 226.091C432.54 225.462 432.828 224.705 432.884 223.913C432.936 223.367 432.868 222.817 432.685 222.3C432.502 221.783 432.208 221.313 431.824 220.922C430.721 219.976 429.313 219.46 427.86 219.47L420.005 218.875L419.395 227.122Z" fill="#263238"/>
<path d="M439.955 242.6L441.799 217.771L451.121 218.453C452.681 218.511 454.212 218.887 455.622 219.557C456.702 220.116 457.583 220.993 458.149 222.069C458.702 223.096 458.954 224.259 458.875 225.423C458.798 226.475 458.42 227.483 457.786 228.327C457.08 229.272 456.117 229.992 455.012 230.403C456.355 230.86 457.512 231.742 458.308 232.915C459.037 234.059 459.364 235.413 459.238 236.763C459.163 237.889 458.83 238.982 458.265 239.958C457.777 240.831 457.091 241.577 456.261 242.136C455.403 242.656 454.451 243.001 453.459 243.152C452.123 243.358 450.767 243.397 449.422 243.268L439.955 242.6ZM443.454 239.914L449.64 240.379C450.389 240.433 451.141 240.433 451.891 240.379C452.566 240.317 453.225 240.135 453.836 239.841C454.39 239.534 454.855 239.089 455.187 238.549C455.601 237.873 455.829 237.1 455.85 236.307C455.87 235.514 455.682 234.73 455.303 234.033C454.875 233.306 454.215 232.743 453.43 232.436C452.27 232.031 451.056 231.801 449.829 231.754L444.093 231.333L443.454 239.914ZM444.311 228.443L449.683 228.85C450.729 228.985 451.788 228.985 452.834 228.85C453.598 228.715 454.294 228.326 454.809 227.746C455.302 227.147 455.583 226.402 455.608 225.626C455.679 224.861 455.533 224.091 455.187 223.405C454.843 222.741 454.27 222.225 453.575 221.953C452.361 221.574 451.1 221.364 449.829 221.328L444.863 220.951L444.311 228.443Z" fill="#263238"/>
<path d="M463.739 244.372L465.583 219.542L468.879 219.789L467.021 244.618L463.739 244.372Z" fill="#263238"/>
<path d="M472.814 245.04L474.673 220.21L483.225 220.849C484.697 220.925 486.157 221.154 487.581 221.532C488.901 221.918 490.108 222.621 491.095 223.579C492.343 224.817 493.249 226.358 493.723 228.051C494.262 229.992 494.439 232.014 494.246 234.019C494.153 235.716 493.806 237.39 493.215 238.985C492.761 240.248 492.099 241.426 491.255 242.469C490.579 243.307 489.758 244.015 488.83 244.56C487.877 245.081 486.84 245.43 485.766 245.591C484.435 245.788 483.085 245.827 481.744 245.707L472.814 245.04ZM476.328 242.368L481.628 242.76C482.927 242.894 484.238 242.836 485.519 242.586C486.37 242.399 487.166 242.016 487.843 241.468C488.748 240.631 489.448 239.598 489.89 238.447C490.477 236.933 490.82 235.336 490.906 233.714C491.177 231.647 490.886 229.546 490.064 227.63C489.459 226.325 488.438 225.257 487.16 224.595C485.81 224.097 484.388 223.822 482.949 223.782L477.737 223.39L476.328 242.368Z" fill="#263238"/>
<path d="M497.876 246.913L499.72 222.083L508.272 222.708C509.745 222.782 511.206 223.016 512.628 223.405C513.945 223.789 515.147 224.493 516.128 225.452C517.377 226.684 518.283 228.22 518.756 229.91C519.292 231.851 519.474 233.872 519.293 235.877C519.186 237.573 518.839 239.245 518.262 240.843C517.807 242.113 517.139 243.297 516.287 244.343C515.612 245.176 514.79 245.879 513.863 246.419C512.915 246.939 511.882 247.288 510.813 247.45C509.482 247.644 508.133 247.688 506.791 247.581L497.876 246.913ZM501.375 244.226L506.675 244.618C507.974 244.753 509.285 244.694 510.566 244.444C511.418 244.26 512.214 243.877 512.89 243.326C513.796 242.497 514.497 241.468 514.937 240.321C515.524 238.806 515.867 237.209 515.953 235.587C516.224 233.52 515.933 231.419 515.111 229.503C514.512 228.194 513.489 227.125 512.207 226.468C510.855 225.957 509.427 225.677 507.982 225.641L502.769 225.249L501.375 244.226Z" fill="#263238"/>
<path d="M522.996 248.771L524.84 223.942L542.787 225.278L542.569 228.182L527.904 227.093L527.338 234.701L541.073 235.718L540.856 238.622L527.12 237.591L526.495 246.041L541.741 247.188L541.524 250.092L522.996 248.771Z" fill="#263238"/>
<path d="M546.024 250.485L547.868 225.655L551.237 225.902L562.853 246.375L564.305 226.875L567.456 227.107L565.597 251.951L562.229 251.69L550.613 231.216L549.161 250.717L546.024 250.485Z" fill="#263238"/>
<path d="M351.21 606.152H313.196L340.828 386.639H378.856L351.21 606.152Z" fill="#615EDB"/>
<path opacity="0.4" d="M351.21 606.152H313.196L340.828 386.639H378.856L351.21 606.152Z" fill="black"/>
<path d="M309.799 606.152H313.197L340.828 386.639H337.43L309.799 606.152Z" fill="#263238"/>
<path d="M492.998 606.152H454.984L482.616 386.639H520.644L492.998 606.152Z" fill="#615EDB"/>
<path opacity="0.4" d="M492.998 606.152H454.984L482.616 386.639H520.644L492.998 606.152Z" fill="black"/>
<path d="M451.572 606.152H454.984L482.616 386.639H479.218L451.572 606.152Z" fill="#263238"/>
<path d="M386.407 580.03H524.289L518.277 532.245H380.396L386.407 580.03Z" fill="#615EDB"/>
<path d="M386.406 580.03H384.156L378.13 532.245H380.395L386.406 580.03Z" fill="#263238"/>
<path d="M516.694 534.336L522.183 577.94H514.037L492.155 534.336H516.694Z" fill="white"/>
<path d="M478.26 534.336L500.141 577.94H470.23L448.349 534.336H478.26Z" fill="white"/>
<path d="M434.453 534.336L456.335 577.94H426.409L404.542 534.336H434.453Z" fill="white"/>
<path d="M390.661 534.336L412.528 577.94H387.99L382.501 534.336H390.661Z" fill="white"/>
<path d="M511.09 606.152H549.117L521.471 386.639H483.458L511.09 606.152Z" fill="#615EDB"/>
<path opacity="0.2" d="M495.771 484.431L535.774 500.156L524.289 408.999H486.261L495.771 484.431Z" fill="black"/>
<path d="M511.09 606.152H507.692L480.061 386.639H483.458L511.09 606.152Z" fill="#263238"/>
<path d="M369.301 606.152H407.329L379.698 386.639H341.67L369.301 606.152Z" fill="#615EDB"/>
<path opacity="0.2" d="M353.983 484.431L393.986 500.156L382.501 408.999H344.487L353.983 484.431Z" fill="black"/>
<path d="M369.302 606.152H365.904L338.272 386.639H341.67L369.302 606.152Z" fill="#263238"/>
<path d="M338.796 474.31H546.417L537.357 402.364H329.735L338.796 474.31Z" fill="#615EDB"/>
<path d="M338.795 474.31H335.397L326.337 402.364H329.735L338.795 474.31Z" fill="#263238"/>
<path d="M534.975 405.5L543.251 471.159H530.982L498.036 405.5H534.975Z" fill="white"/>
<path d="M477.112 405.5L510.058 471.159H465.003L432.071 405.5H477.112Z" fill="white"/>
<path d="M411.148 405.5L444.094 471.159H399.039L366.093 405.5H411.148Z" fill="white"/>
<path d="M345.199 405.5L378.13 471.159H341.177L332.915 405.5H345.199Z" fill="white"/>
</svg>
