<svg width="1183" height="874" viewBox="0 0 1183 874" fill="none" xmlns="http://www.w3.org/2000/svg">
<path d="M272.137 466.497H364.21C363.203 491.939 359.779 511.748 353.937 525.923C348.095 540.099 335.748 558.56 316.895 581.308H191.371C174.493 581.308 160.81 567.628 160.81 550.753V497.052C160.81 480.681 173.688 467.317 189.868 466.534C170.701 461.875 155.915 460.96 153.964 453.151C151.643 443.862 184.5 446.947 178.93 442.703C173.36 438.46 135.26 427.239 132.627 416.703C129.993 406.166 162.409 420.486 158.249 410.329C154.088 400.172 118.447 387.074 116.256 378.307C115.429 374.999 118.947 373.768 126.81 374.612C113.506 356.541 108.777 346.558 112.624 344.663C116.817 342.597 127.128 348.843 143.556 363.4C141.477 351.032 142.486 345.396 146.581 346.49C155.329 348.829 167.833 384.613 177.938 388.941C188.044 393.269 174.26 360.681 184.773 363.492C195.286 366.302 205.865 404.507 210.02 410.137C214.176 415.768 211.657 382.936 220.925 385.414C230.193 387.892 229.37 408.315 236.643 432.804C243.916 457.293 248.753 424.799 261.004 419.248C268.547 415.831 272.258 431.581 272.137 466.497ZM531.716 420.868C544.905 415.371 552.879 413.46 555.637 415.134C558.148 416.658 553.824 421.26 542.665 428.94C548.264 429.577 550.601 430.717 549.676 432.359C547.209 436.74 520.519 438.814 516.507 443.665C512.495 448.516 537.02 445.344 534.054 450.609C531.089 455.874 502.846 456.605 498.447 458.103C494.048 459.6 517.719 462.49 515.105 467.132C512.49 471.773 497.984 468.696 479.835 469.428C461.686 470.16 484.446 476.943 487.292 484.218C489.189 489.068 475.447 488.612 446.066 482.848L428.084 478.553L429.981 477.433L428.146 478.109L428.87 462.806C432.572 440.656 437.134 431.133 442.554 434.238C450.685 438.895 450.747 456.921 458.459 444.844C466.172 432.766 467.708 421.743 474.551 421.7C481.395 421.656 476.196 438.846 479.734 436.413C483.272 433.979 494.758 415.032 502.521 414.982C510.285 414.933 497.104 430.437 504.735 429.521C512.367 428.605 524.969 411.217 531.429 411.176C534.492 411.156 534.587 414.387 531.716 420.868ZM310.255 185.139C306.766 180.266 304.712 174.295 304.712 167.845V162.318C304.712 145.891 318.031 132.575 334.461 132.575C350.891 132.575 364.21 145.891 364.21 162.318V167.845C364.21 174.295 362.157 180.266 358.668 185.139H362.014C378.893 185.139 392.576 198.819 392.576 215.694V263.861C392.576 280.736 378.893 294.416 362.014 294.416H306.908C290.03 294.416 276.347 280.736 276.347 263.861V215.694C276.347 198.819 290.03 185.139 306.908 185.139H310.255ZM321.62 607.632H352.909C356.927 607.632 360.185 610.889 360.185 614.907C360.185 618.925 356.927 622.182 352.909 622.182H321.62C317.601 622.182 314.343 618.925 314.343 614.907C314.343 610.889 317.601 607.632 321.62 607.632ZM221.932 600.357H293.242C297.26 600.357 300.518 603.615 300.518 607.632V614.907C300.518 618.925 297.26 622.182 293.242 622.182H221.932C217.914 622.182 214.656 618.925 214.656 614.907V607.632C214.656 603.615 217.914 600.357 221.932 600.357Z" fill="#D8DEED"/>
<path d="M362.954 485.005C363.533 479.208 363.951 473.039 364.21 466.497H210.061C208.31 464.305 207.379 461.908 207.379 459.295C207.379 438.538 210.331 411.071 216.235 376.897C221.86 329.697 247.772 304.686 293.97 301.863C363.267 297.63 445.199 292.505 453.749 376.897C459.428 432.948 474.67 454.901 461.868 466.632H481.702C498.581 466.632 512.263 480.312 512.263 497.187V550.887C512.263 567.762 498.581 581.442 481.702 581.442L316.895 581.308C335.748 558.56 348.095 540.099 353.937 525.923C358.277 515.393 361.283 501.753 362.954 485.005ZM160.81 550.887V550.753V550.887Z" fill="#E1E5F0"/>
<path d="M362.74 300.204C370.281 300.941 377.458 301.979 384.274 303.316V364.461C384.274 381.336 370.591 395.016 353.712 395.016H315.21C298.332 395.016 284.649 381.336 284.649 364.461V302.766C291.01 301.545 297.935 300.609 305.423 299.959C293.345 295.879 284.649 284.457 284.649 271.004V250.58C287.501 242.772 294.996 237.198 303.793 237.198C315.045 237.198 324.167 246.318 324.167 257.568H330.716C330.716 242.701 318.662 230.65 303.793 230.65C296.304 230.65 289.529 233.707 284.649 238.641V222.836C284.649 222.331 284.661 221.829 284.685 221.33H384.237C384.261 221.829 384.274 222.331 384.274 222.836V239.643C379.343 234.124 372.171 230.65 364.187 230.65C349.318 230.65 337.264 242.701 337.264 257.568H343.813C343.813 246.318 352.935 237.198 364.187 237.198C374.27 237.198 382.642 244.52 384.274 254.136V271.004C384.274 284.737 375.212 296.354 362.74 300.204ZM335.448 463.253C341.803 459.945 346.086 457.552 348.299 456.074C353.079 452.881 356.066 450.226 357.261 448.11L344.908 442.621C343.265 441.891 342.144 440.333 341.974 438.544C341.714 435.807 343.722 433.379 346.459 433.119C360.041 431.83 370.723 432.662 378.505 435.615C389.336 439.724 400.196 450.014 411.086 466.484L411.121 466.497H341.769H259.773L259.839 466.472C259.814 466.477 259.802 466.478 259.804 466.476C270.647 450.025 281.618 439.7 292.386 435.615C300.167 432.662 310.849 431.83 324.432 433.119C327.168 433.379 329.176 435.807 328.917 438.544C328.747 440.333 327.625 441.891 325.983 442.621L313.629 448.11C314.824 450.226 317.812 452.881 322.592 456.074C324.804 457.552 329.09 459.945 335.448 463.253Z" fill="#F2F6FB"/>
<path d="M251.766 607.632H198.648C194.629 607.632 191.371 610.89 191.371 614.907C191.371 618.925 194.629 622.182 198.648 622.182H251.766C255.784 622.182 259.042 618.925 259.042 614.907C259.042 610.89 255.784 607.632 251.766 607.632Z" fill="#E1E5F0"/>
<path d="M851.82 513.065C868.056 512.832 884.751 512.775 901.904 512.893C927.903 513.073 924.059 515.327 937.433 513.073C945.575 511.7 950.193 509.035 952.56 509.407C954.081 509.645 954.673 511.138 954.673 515.032C954.673 521.669 951.707 535.506 945.775 556.542L909.908 634.391L896.548 670.402C892.368 681.671 881.686 689.211 869.665 689.379L784.404 690.567L835.208 519.647C836.396 515.651 840.094 512.93 844.263 512.983L850.795 513.066C851.137 513.07 851.478 513.07 851.82 513.065Z" fill="#A339FF"/>
<path d="M912.45 701.549C912.231 703.958 910.206 705.845 907.74 705.845H899.383L920.492 784.612C920.481 784.906 918.855 785.56 916.67 786.145C915.662 786.415 914.641 786.64 913.944 786.73C913.248 786.819 912.797 786.819 912.761 786.683L891.096 705.845H397.276L375.611 786.683C375.454 786.932 373.719 786.685 371.534 786.1C370.526 785.83 369.529 785.514 368.881 785.244C368.233 784.973 367.843 784.747 367.88 784.612L388.989 705.845H383.106C380.494 705.845 378.376 703.728 378.376 701.116C378.376 698.505 380.494 696.387 383.106 696.387H904.223L965.108 519.6C965.958 517.131 968.65 515.818 971.12 516.669C973.59 517.519 974.902 520.21 974.052 522.679L912.45 701.549Z" fill="#D8DEED"/>
<path d="M1074.01 278.075H802.595C794.557 278.075 788.042 284.589 788.042 292.625V354.462C788.042 362.498 794.557 369.012 802.595 369.012H1074.01C1082.04 369.012 1088.56 362.498 1088.56 354.462V292.625C1088.56 284.589 1082.04 278.075 1074.01 278.075Z" fill="#E1E5F0"/>
<path d="M816.026 321.368H968.058C968.862 321.368 969.514 322.019 969.514 322.823V330.424C969.514 331.228 968.862 331.879 968.058 331.879H816.026C815.223 331.879 814.571 331.228 814.571 330.424V322.823C814.571 322.019 815.223 321.368 816.026 321.368ZM816.026 338.449H981.189C981.993 338.449 982.644 339.1 982.644 339.904V347.505C982.644 348.308 981.993 348.96 981.189 348.96H816.026C815.223 348.96 814.571 348.308 814.571 347.505V339.904C814.571 339.1 815.223 338.449 816.026 338.449Z" fill="#F2F6FB"/>
<path d="M983.815 304.287H816.026C815.223 304.287 814.571 304.938 814.571 305.742V313.343C814.571 314.147 815.223 314.798 816.026 314.798H983.815C984.619 314.798 985.271 314.147 985.271 313.343V305.742C985.271 304.938 984.619 304.287 983.815 304.287Z" fill="#F2F6FB"/>
<path d="M1074.01 174.77H802.595C794.557 174.77 788.042 181.284 788.042 189.32V251.157C788.042 259.193 794.557 265.707 802.595 265.707H1074.01C1082.04 265.707 1088.56 259.193 1088.56 251.157V189.32C1088.56 181.284 1082.04 174.77 1074.01 174.77Z" fill="#F2F6FB"/>
<path d="M1043.05 350.274C1028.54 350.274 1016.78 338.509 1016.78 323.996C1016.78 309.483 1028.54 297.717 1043.05 297.717C1057.55 297.717 1069.31 309.483 1069.31 323.996C1069.31 338.509 1057.55 350.274 1043.05 350.274ZM840.832 246.537C826.329 246.537 814.571 234.772 814.571 220.259C814.571 205.745 826.329 193.98 840.832 193.98C855.336 193.98 867.094 205.745 867.094 220.259C867.094 234.772 855.336 246.537 840.832 246.537Z" fill="#474BFF"/>
<path fill-rule="evenodd" clip-rule="evenodd" d="M840.819 219.903C837.243 219.903 834.344 217.042 834.344 213.511C834.344 209.981 837.243 207.119 840.819 207.119C844.395 207.119 847.294 209.981 847.294 213.511C847.294 217.042 844.395 219.903 840.819 219.903ZM840.819 223.099C847.301 223.099 852.556 228.286 852.556 234.685H829.082C829.082 228.286 834.337 223.099 840.819 223.099ZM1043.03 323.64C1039.46 323.64 1036.56 320.779 1036.56 317.248C1036.56 313.718 1039.46 310.856 1043.03 310.856C1046.61 310.856 1049.51 313.718 1049.51 317.248C1049.51 320.779 1046.61 323.64 1043.03 323.64ZM1043.03 326.836C1049.51 326.836 1054.77 332.023 1054.77 338.422H1031.3C1031.3 332.023 1036.55 326.836 1043.03 326.836Z" fill="white"/>
<path d="M881.68 215.003H1033.71C1034.52 215.003 1035.17 215.654 1035.17 216.458V224.059C1035.17 224.863 1034.52 225.514 1033.71 225.514H881.68C880.876 225.514 880.225 224.863 880.225 224.059V216.458C880.225 215.654 880.876 215.003 881.68 215.003ZM881.68 232.084H1059.97C1060.78 232.084 1061.43 232.735 1061.43 233.539V241.14C1061.43 241.944 1060.78 242.595 1059.97 242.595H881.68C880.876 242.595 880.225 241.944 880.225 241.14V233.539C880.225 232.735 880.876 232.084 881.68 232.084Z" fill="#E1E5F0"/>
<path d="M996.946 197.922H881.68C880.876 197.922 880.225 198.573 880.225 199.377V206.978C880.225 207.782 880.876 208.433 881.68 208.433H996.946C997.75 208.433 998.401 207.782 998.401 206.978V199.377C998.401 198.573 997.75 197.922 996.946 197.922Z" fill="#E1E5F0"/>
<path d="M409.661 517.164L409.29 517.396C407.91 518.344 407.532 520.21 408.418 521.629L470.869 619.355C471.818 620.735 473.685 621.113 475.104 620.227L475.474 619.995C476.855 619.047 477.233 617.181 476.346 615.762L413.934 518.098C413.008 516.617 411.142 516.239 409.661 517.164ZM569.897 694.929L452.745 694.929C450.937 694.929 449.471 696.394 449.471 698.202C449.471 700.01 450.937 701.476 452.745 701.476L569.897 701.476C571.705 701.476 573.171 700.01 573.171 698.202C573.171 696.394 571.705 694.929 569.897 694.929Z" fill="#FFCB3D"/>
<path d="M413.393 517.268C413.617 517.464 413.817 517.697 413.986 517.968L476.398 615.632C476.703 616.119 476.858 616.659 476.875 617.196L512.939 595.646L486.627 547.231L471.579 541.276C467.468 540.327 463.45 538.977 459.562 537.288C450.238 533.077 447.947 529.275 435.777 521.609C432.507 519.534 429.19 517.66 425.627 515.94C423.545 515.353 419.572 514.489 416.148 515.599C415.577 515.784 415.083 516.093 414.613 516.301C414.152 516.589 413.747 516.917 413.393 517.268ZM452.373 694.826C452.512 694.808 452.654 694.799 452.798 694.799L569.949 694.799C570.11 694.799 570.268 694.81 570.423 694.833L570.423 646.186L520.644 646.186C511.245 652.637 505.551 656.857 503.562 658.846C500.579 661.828 497.305 664.52 493.812 666.921C485.298 672.595 480.86 672.523 467.908 678.779C464.415 680.452 461.068 682.271 457.721 684.381C454.373 686.491 453.282 688.746 452.409 692.238C452.263 692.82 452.263 693.402 452.19 693.911C452.19 694.247 452.256 694.551 452.373 694.826Z" fill="#474961"/>
<path opacity="0.176986" d="M413.39 517.266C413.615 517.462 413.816 517.696 413.986 517.968L476.398 615.632C476.702 616.118 476.858 616.657 476.875 617.193L512.934 595.646L486.622 547.231L471.574 541.276C467.463 540.327 463.445 538.977 459.557 537.288C450.233 533.077 447.942 529.275 435.772 521.609C432.502 519.534 429.185 517.66 425.622 515.94C423.54 515.353 419.567 514.489 416.143 515.599C415.572 515.784 415.078 516.093 414.608 516.301C414.148 516.588 413.744 516.916 413.39 517.266Z" fill="#444444"/>
<path d="M493.688 571.825L483.273 539.878C481.523 534.509 483.879 528.659 488.862 526.001L511.117 514.13C522.147 496.917 537.389 485.643 558.656 494.274C559.313 494.54 559.991 494.825 560.691 495.128L560.073 494.773C595.753 474.803 617.788 463.671 626.178 461.376C634.569 459.081 643.088 462.409 651.736 471.361L742.162 597.706C797.202 600.991 824.794 617.193 824.938 646.31C825.081 675.428 809.481 693.191 778.139 699.6C747.227 702.183 721.826 701.291 701.936 696.924C679.399 698.137 660.103 695.164 644.047 688.005C618.244 676.499 594.118 651.197 571.668 612.098L570.547 646.834H494.557C490.538 646.834 487.28 643.576 487.28 639.559C487.28 639.397 487.286 639.236 487.297 639.074C489.096 612.111 491.226 589.695 493.688 571.825Z" fill="#AF8EF5"/>
<path opacity="0.176986" d="M702.094 696.916C679.49 698.151 660.141 695.181 644.047 688.005C618.244 676.499 594.118 651.197 571.668 612.098L570.547 646.834H494.557C490.538 646.834 487.281 643.577 487.281 639.559C487.281 639.397 487.286 639.236 487.297 639.074C491.278 579.406 496.881 542.006 504.108 526.874C515.41 503.207 532.463 483.644 558.656 494.274C559.583 494.65 560.554 495.063 561.567 495.513L610.4 523.612L615.872 547.859C628.733 618.082 645.146 662.088 665.109 679.879C673.95 687.757 686.278 693.436 702.094 696.916Z" fill="#444444"/>
<path d="M823.757 507.448C830.151 507.825 837.616 509.651 844.351 514.885C852.285 521.012 855.485 528.003 861.275 542.099C866.082 553.805 870.218 564.166 865.473 570.245C862 574.695 855.916 574.695 851.827 574.417C845.769 573.23 840.132 572.786 834.644 572.603L821.585 601.014C820.26 604.739 811.028 628.105 808.31 630.989C800.546 639.29 780.825 631.043 749.145 606.248C741.151 599.098 738.922 590.541 742.456 580.577C744.488 574.207 746.384 568.297 748.147 562.846C744.097 562.299 738.224 560.828 735.778 556.401C732.051 549.65 738.233 540.139 745.199 529.576C753.518 516.826 757.999 510.577 766.909 506.018C772.392 503.228 777.912 502.245 782.945 502.223C792.301 500.225 806.832 499.754 823.757 507.448Z" fill="#393939"/>
<path opacity="0.176986" d="M747.893 562.963C743.875 562.36 738.388 560.832 736.046 556.593C732.319 549.841 738.728 540.465 745.467 529.768C753.671 516.745 758.266 510.299 767.176 505.739C772.326 503.119 777.508 502.155 782.289 502.101C778.528 502.944 775.648 504.023 773.841 504.88C769.272 507.023 767.998 508.847 764.655 514.808C762.776 518.159 757.189 534.21 747.893 562.963Z" fill="#444444"/>
<path d="M702.584 525.552L702.583 525.638L753.27 526.326C755.38 526.349 757.14 524.608 757.162 522.499L757.268 516.532C757.29 514.422 755.549 512.663 753.439 512.64L702.854 512.005L702.855 511.955L697.427 515.523C695.058 517.036 694.992 520.38 697.307 521.902L702.584 525.552Z" fill="#474BFF"/>
<path d="M810.599 489.69C811.809 493.49 813.759 498.447 816.448 504.562C813.091 503.425 809.464 502.557 805.568 501.957C799.724 501.058 797.101 500.975 794.187 500.968L793.645 496.49C789.159 498.035 789.415 497.895 789.015 498.07C785.841 498.85 782.625 499.046 779.432 498.806C773.201 498.115 766.384 486.393 763.753 469.864C763.534 468.469 763.458 467.153 763.381 465.838L763.275 452.574C763.216 449.511 763.95 446.636 765.395 444.089C765.957 443.098 766.664 442.115 767.372 441.133C775.473 431.14 789.452 432.746 792.053 433.174C792.344 433.189 792.63 433.277 792.994 433.296C795.652 434.018 798.26 434.3 800.949 434.441C802.184 434.506 803.083 435.427 803.018 436.662L802.678 455.658C802.686 456.897 808.685 455.735 810.001 455.658C813.504 455.551 818.161 458.418 819.428 462.054C820.392 465.893 819.753 471.18 817.211 473.815C816.288 474.738 814.104 480.02 810.66 489.66C810.649 489.667 810.628 489.677 810.599 489.69ZM744.952 526.238L748.897 526.291C750.663 529.572 752.335 532.659 753.764 535.266C755.315 536.796 756.41 537.87 756.558 538.035C791.066 574.897 808.342 593.338 808.387 593.358C808.549 593.35 808.905 591.12 809.768 582.744C809.832 581.058 810.025 576.96 810.341 571.939C824.364 573.1 836.795 571.472 851.827 574.417C854.021 574.566 856.857 574.573 859.536 573.92C858.51 582.628 856.893 594.312 854.124 607.984C845.801 649.033 838.402 653.305 835.136 654.559C832.35 655.628 823.793 658.031 808.388 647.192C802.208 641.574 795.976 635.535 789.76 629.104C772.24 611.017 757.361 592.516 744.703 574.302C742.455 580.21 741.199 584.485 740.935 587.127C740.679 589.695 741.34 593.058 742.65 597.706C742.685 597.832 742.523 597.832 742.162 597.706L731.944 583.587C733.059 581.773 735.252 575.633 738.522 565.168C733.628 557.74 729.096 550.38 724.898 543.136L710.117 525.883C708.773 524.25 708.893 521.834 710.556 520.424L712.035 519.251C712.7 518.687 713.487 518.394 714.279 518.345L713.277 517.176C711.934 515.543 712.053 513.127 713.717 511.718L715.195 510.544C716.275 509.628 717.661 509.386 718.886 509.784C718.646 508.48 719.068 507.093 720.178 506.152L721.656 504.979C723.319 503.569 725.742 503.851 727.116 505.418L728.657 507.217C727.498 502.203 727.91 497.455 732.715 495.886C732.715 495.886 736.704 503.449 741.529 512.515L733.105 512.41L744.952 526.238Z" fill="#F2A98A"/>
<path d="M834.142 458.32C834.409 459.713 834.62 461.042 834.897 462.373C835.907 462.572 836.985 462.847 838.194 463.42C839.047 463.829 844.887 466.393 847.317 471.475C850.795 478.796 847.053 490.402 835.826 497.463C835.226 497.795 834.706 497.987 834.706 497.987C832.775 498.687 830.951 498.737 829.054 498.783C828.69 498.764 828.251 498.814 828.251 498.814C824.281 498.557 820.052 498.282 815.565 497.987C813.06 497.584 811.462 495.443 810.769 491.566C810.58 490.508 810.502 489.212 810.472 487.753C810.279 485.061 809.934 480.143 809.691 476.205C812.111 475.894 814.355 474.774 816.049 473.042C818.737 470.414 819.6 466.453 818.406 462.82C817.139 459.184 813.502 456.298 809.999 456.406C808.683 456.483 807.421 456.927 806.22 457.592C804.706 458.679 803.398 459.994 802.58 461.7L799.006 470.109L799.07 470.163C799.021 470.17 798.974 470.174 798.93 470.178C792.409 470.856 789.547 446.228 775.633 442.002C772.405 441.032 768.904 441.368 766.911 441.847C772.901 430.282 791.993 432.738 792.357 432.757C796.694 433.421 800.727 434.503 803.052 434.624C814.518 435.517 819.027 434.296 824.688 437.506C826.811 438.71 828.769 440.27 830.192 442.311C834.013 447.649 834.416 453.991 834.142 458.32ZM772.683 462.995C771.964 462.811 771.795 461.855 772.33 461.374C773.088 460.83 774.281 460.31 775.73 460.459C778.847 460.768 781.938 462.97 778.484 463.517C776.423 463.919 774.117 463.434 772.683 462.995ZM760.345 462.057C759.63 461.801 759.534 460.849 760.211 460.447C761.037 459.98 762.153 459.529 763.74 459.831C766.773 460.354 769.703 462.839 766.116 463.161C763.921 463.337 761.775 462.569 760.345 462.057Z" fill="#482D1F"/>
<path d="M766.267 465.962C766.234 465.561 766.532 465.21 766.933 465.177C767.333 465.144 767.685 465.442 767.718 465.842L768.074 470.159L768.076 470.25L767.745 477.953C767.768 478.041 767.834 478.102 767.929 478.116C768.179 478.104 768.434 478.11 768.715 478.132C768.934 478.149 769.101 478.168 769.486 478.215C770.604 478.353 771.092 478.354 771.723 478.152C772.106 478.029 772.515 478.24 772.638 478.623C772.76 479.006 772.549 479.415 772.167 479.538C771.276 479.823 770.625 479.821 769.308 479.659C768.945 479.614 768.793 479.597 768.603 479.583C768.363 479.564 768.155 479.56 767.96 479.571L767.879 479.571C767.03 479.527 766.383 478.888 766.291 478.078L766.287 477.965L766.62 470.233L766.267 465.962Z" fill="#482D1F"/>
<path d="M773.416 484.714C773.927 484.65 775.241 484.382 775.546 483.587C775.549 483.441 775.698 483.226 775.628 483.079C775.416 482.712 773.161 482.672 773.161 482.672C770.176 482.693 769.451 482.535 769.227 482.895C769.15 483.112 769.145 483.402 769.643 484.066C770.203 485.313 772.613 484.845 773.416 484.714Z" fill="#482D1F"/>
<path d="M793.398 496.478L799.413 494.316L794.156 500.737L793.398 496.478Z" fill="#482D1F"/>
<path d="M765.17 471.489C764.221 472.896 761.926 469.425 762.56 467.054C762.759 466.044 763.428 465.788 763.941 465.742C764.74 465.784 765.582 466.411 765.605 467.359C765.758 468.606 765.869 470.651 765.17 471.489ZM776.984 471.857C775.963 473.26 773.74 469.793 774.374 467.422C774.573 466.412 775.242 466.156 775.755 466.11C776.554 466.152 777.395 466.779 777.419 467.727C777.572 468.973 777.756 471.023 776.984 471.857Z" fill="#482D1F"/>
<path d="M663.95 482.92C662.066 484.288 661.648 486.93 663.017 488.814L725.418 574.684C726.787 576.568 729.429 576.986 731.313 575.618C733.197 574.249 733.615 571.607 732.247 569.724L669.845 483.853C668.477 481.97 665.834 481.551 663.95 482.92Z" fill="#474961"/>
<path opacity="0.2" d="M738.609 565.437C735.322 575.96 733.12 582.131 732.001 583.951L742.22 598.07C742.58 598.196 742.743 598.196 742.707 598.07C741.398 593.422 740.737 590.058 740.993 587.491C741.259 584.819 742.54 580.479 744.836 574.469L738.609 565.437Z" fill="#8C2A00"/>
<path d="M809.349 554.545C809.303 554.612 809.211 554.75 809.083 554.951C808.866 555.291 808.63 555.678 808.385 556.106C807.443 557.75 806.638 559.483 806.118 561.168C804.733 565.656 805.63 568.552 809.702 569.608C810.286 569.759 810.636 570.355 810.485 570.938C810.334 571.521 809.738 571.872 809.155 571.721C803.637 570.29 802.325 566.057 804.032 560.525C804.605 558.665 805.475 556.793 806.491 555.02C806.754 554.562 807.008 554.145 807.242 553.777C807.385 553.553 807.492 553.393 807.553 553.305C807.895 552.809 808.575 552.684 809.071 553.027C809.567 553.369 809.692 554.049 809.349 554.545Z" fill="#262626"/>
<path d="M489.706 157.31H748.021C756.058 157.31 762.574 163.824 762.574 171.86V373.377C762.574 375.788 760.619 377.742 758.208 377.742H479.519C477.108 377.742 475.153 375.788 475.153 373.377V171.86C475.153 163.824 481.669 157.31 489.706 157.31Z" fill="#F2F6FB"/>
<path d="M738.073 205.88H494.759C493.151 205.88 491.848 207.183 491.848 208.79V267.05C491.848 268.657 493.151 269.96 494.759 269.96H738.073C739.68 269.96 740.983 268.657 740.983 267.05V208.79C740.983 207.183 739.68 205.88 738.073 205.88Z" fill="#A339FF"/>
<path d="M625.221 232.41C626.871 232.41 628.207 231.061 628.207 229.398C628.207 227.734 626.871 226.386 625.221 226.386C623.572 226.386 622.235 227.734 622.235 229.398C622.235 231.061 623.572 232.41 625.221 232.41Z" fill="#F2F6FB"/>
<path d="M625.397 250.651C625.397 250.651 624.747 250.651 623.934 250.651H598.927C598.119 250.651 597.811 250.095 598.233 249.418L610.431 229.829C610.855 229.148 611.562 229.145 612.004 229.816L622.631 246.06" fill="#F2F6FB"/>
<path d="M616.491 250.669C616.491 250.669 616.833 250.12 617.262 249.429L624.155 238.338C624.581 237.653 625.293 237.631 625.748 238.292L633.193 249.106C633.648 249.766 633.369 250.321 632.567 250.346L626.396 250.537" fill="#F2F6FB"/>
<path d="M493.303 281.495H580.287C581.091 281.495 581.742 282.146 581.742 282.95V290.293C581.742 291.096 581.091 291.748 580.287 291.748H493.303C492.5 291.748 491.848 291.096 491.848 290.293V282.95C491.848 282.146 492.5 281.495 493.303 281.495ZM493.303 298.156H554.603C555.407 298.156 556.058 298.807 556.058 299.611V306.954C556.058 307.757 555.407 308.409 554.603 308.409H493.303C492.5 308.409 491.848 307.757 491.848 306.954V299.611C491.848 298.807 492.5 298.156 493.303 298.156ZM493.303 314.817H567.445C568.249 314.817 568.9 315.468 568.9 316.272V323.615C568.9 324.418 568.249 325.07 567.445 325.07H493.303C492.5 325.07 491.848 324.418 491.848 323.615V316.272C491.848 315.468 492.5 314.817 493.303 314.817ZM493.303 331.478H541.761C542.565 331.478 543.216 332.129 543.216 332.933V340.275C543.216 341.079 542.565 341.73 541.761 341.73H493.303C492.5 341.73 491.848 341.079 491.848 340.275V332.933C491.848 332.129 492.5 331.478 493.303 331.478ZM608.882 298.156H698.433C699.237 298.156 699.889 298.807 699.889 299.611V306.954C699.889 307.757 699.237 308.409 698.433 308.409H608.882C608.078 308.409 607.426 307.757 607.426 306.954V299.611C607.426 298.807 608.078 298.156 608.882 298.156ZM608.882 314.817H709.991C710.795 314.817 711.447 315.468 711.447 316.272V323.615C711.447 324.418 710.795 325.07 709.991 325.07H608.882C608.078 325.07 607.426 324.418 607.426 323.615V316.272C607.426 315.468 608.078 314.817 608.882 314.817ZM608.882 331.478H721.549C722.353 331.478 723.004 332.129 723.004 332.933V340.275C723.004 341.079 722.353 341.73 721.549 341.73H608.882C608.078 341.73 607.426 341.079 607.426 340.275V332.933C607.426 332.129 608.078 331.478 608.882 331.478ZM608.882 348.139H686.876C687.679 348.139 688.331 348.79 688.331 349.594V356.936C688.331 357.74 687.679 358.391 686.876 358.391H608.882C608.078 358.391 607.426 357.74 607.426 356.936V349.594C607.426 348.79 608.078 348.139 608.882 348.139ZM608.882 281.495H721.549C722.353 281.495 723.004 282.146 723.004 282.95V290.293C723.004 291.096 722.353 291.748 721.549 291.748H608.882C608.078 291.748 607.426 291.096 607.426 290.293V282.95C607.426 282.146 608.078 281.495 608.882 281.495Z" fill="#E1E5F0"/>
<path d="M475.153 169.776C475.153 162.891 480.734 157.31 487.619 157.31H750.109C756.993 157.31 762.574 162.89 762.574 169.776V182.243H475.153V169.776Z" fill="#E1E5F0"/>
<path d="M491.877 175.443C494.852 175.443 497.263 173.033 497.263 170.06C497.263 167.087 494.852 164.677 491.877 164.677C488.903 164.677 486.492 167.087 486.492 170.06C486.492 173.033 488.903 175.443 491.877 175.443Z" fill="#FF5645"/>
<path d="M509.451 175.443C512.426 175.443 514.837 173.033 514.837 170.06C514.837 167.087 512.426 164.677 509.451 164.677C506.477 164.677 504.066 167.087 504.066 170.06C504.066 173.033 506.477 175.443 509.451 175.443Z" fill="#FFCB3D"/>
<path d="M527.592 175.443C530.567 175.443 532.978 173.033 532.978 170.06C532.978 167.087 530.567 164.677 527.592 164.677C524.618 164.677 522.207 167.087 522.207 170.06C522.207 173.033 524.618 175.443 527.592 175.443Z" fill="#3ABF7C"/>
</svg>
