<svg width="401" height="401" viewBox="0 0 401 401" fill="none" xmlns="http://www.w3.org/2000/svg">
<g clip-path="url(#clip0)">
<path d="M334.605 279.908C332.22 277.686 329.024 276.559 325.767 276.785L49.2927 296.382C43.1421 296.818 38.3755 301.935 38.3755 308.1V350.092C38.3755 378.163 61.2132 401.001 89.2843 401.001H326.598C333.086 401.001 338.346 395.741 338.346 389.253V288.503C338.345 285.243 336.991 282.13 334.605 279.908Z" fill="#726FF0"/>
<path d="M334.605 279.908C332.22 277.686 329.024 276.559 325.767 276.785L235.745 283.166V401.001H326.598C333.086 401.001 338.346 395.741 338.346 389.253V288.503C338.345 285.243 336.991 282.13 334.605 279.908Z" fill="#4B48DF"/>
<path d="M350.877 15.6627H173.887L81.8779 162.556L108.397 340.828L108.864 351.66H170.688L362.625 110.131V27.4109C362.625 20.9228 357.365 15.6627 350.877 15.6627Z" fill="#56D5DA"/>
<path d="M350.877 15.6627H235.745V269.794L362.625 110.131V27.4109C362.625 20.9228 357.365 15.6627 350.877 15.6627Z" fill="#55C4C9"/>
<path d="M173.887 15.6627H90.8477V158.923L225.485 127.661L173.887 15.6627Z" fill="#FFCB3D"/>
<path d="M91.0552 161.175L98.2991 210.115L362.625 260.507V110.131L91.0552 161.175Z" fill="#5EDB8C"/>
<path d="M235.745 133.979V236.319L362.625 260.507V110.131L235.745 133.979Z" fill="#3ABF7C"/>
<path d="M229.596 122.994L188.899 15.6627H163.771L206.149 127.432L100.413 147.446C94.0373 148.653 89.8479 154.8 91.0548 161.174C92.1216 166.811 97.0503 170.74 102.585 170.74C103.31 170.74 104.045 170.672 104.784 170.532L362.625 121.726V97.8123L229.596 122.994Z" fill="#F2F6FB"/>
<path d="M362.625 339.913V252.909L252.275 236.111L175.087 351.661H350.877C357.365 351.661 362.625 346.401 362.625 339.913Z" fill="#F758CF"/>
<path d="M252.276 236.111L235.745 260.857V351.661H350.877C357.365 351.661 362.625 346.401 362.625 339.913V252.909L252.276 236.111Z" fill="#D044AD"/>
<path d="M362.625 245.521L101.65 197.998C95.752 196.92 90.091 200.458 88.3452 206.036L89.8568 216.197C91.5666 218.691 94.2303 220.529 97.4399 221.113L231.064 245.445L152.595 351.661H181.808L256.812 250.134L362.625 269.402V245.521Z" fill="#F2F6FB"/>
<path d="M73.6191 0C54.1852 0 38.3745 15.8107 38.3745 35.2446V351.544C38.3745 351.583 38.38 351.622 38.3808 351.661C38.5069 332.304 54.233 316.65 73.6198 316.65C93.0067 316.65 108.733 332.304 108.859 351.661C108.859 351.622 108.865 351.583 108.865 351.544V35.2446C108.864 15.8107 93.0537 0 73.6191 0Z" fill="#615EDB"/>
<path d="M235.745 121.83V145.743L362.625 121.727V97.813L235.745 121.83Z" fill="#D9E0E6"/>
<path d="M235.745 222.416V278.651L256.812 250.134L362.625 269.402V245.521L235.745 222.416Z" fill="#D9E0E6"/>
</g>
<defs>
<clipPath id="clip0">
<rect width="401" height="401" fill="white"/>
</clipPath>
</defs>
</svg>
