<svg width="1918" height="240" viewBox="0 0 1918 240" fill="none" xmlns="http://www.w3.org/2000/svg">
<path d="M-2 127.783L51.3333 111.81C104.667 95.8371 211.333 63.8914 318 58.6004C424.667 52.9101 531.333 74.8727 638 95.8371C744.667 116.801 851.333 138.764 958 170.41C1064.67 202.656 1171.33 244.584 1278 239.593C1384.67 234.601 1491.33 180.693 1598 154.438C1704.67 127.783 1811.33 127.783 1864.67 127.783L1918 127.783L1918 -1.90734e-06L1864.67 -1.90734e-06C1811.33 -1.90734e-06 1704.67 -1.90734e-06 1598 -1.90734e-06C1491.33 -1.90734e-06 1384.67 -1.90734e-06 1278 -1.90734e-06C1171.33 -1.90734e-06 1064.67 -1.90734e-06 958 -1.90734e-06C851.333 -1.90734e-06 744.667 -1.90734e-06 638 -1.90734e-06C531.333 -1.90734e-06 424.667 -1.90734e-06 318 -1.90734e-06C211.333 -1.90734e-06 104.667 -1.90734e-06 51.3333 -1.90734e-06L-2 -1.90734e-06L-2 127.783Z" fill="#F6F6F6"/>
</svg>
