<svg width="1920" height="338" viewBox="0 0 1920 338" fill="none" xmlns="http://www.w3.org/2000/svg">
<path d="M0 127.8L53.3333 106.5C106.667 85.2002 213.333 42.6002 320 78.1446C426.667 113.156 533.333 227.644 640 262.656C746.667 298.2 853.333 255.6 960 269.845C1066.67 283.556 1173.33 355.444 1280 333.745C1386.67 312.844 1493.33 198.356 1600 142.045C1706.67 85.2002 1813.33 85.2002 1866.67 85.2002H1920V0.000183105H1866.67C1813.33 0.000183105 1706.67 0.000183105 1600 0.000183105C1493.33 0.000183105 1386.67 0.000183105 1280 0.000183105C1173.33 0.000183105 1066.67 0.000183105 960 0.000183105C853.333 0.000183105 746.667 0.000183105 640 0.000183105C533.333 0.000183105 426.667 0.000183105 320 0.000183105C213.333 0.000183105 106.667 0.000183105 53.3333 0.000183105H0V127.8Z" fill="#5EDB8C"/>
</svg>
