<svg width="1920" height="239" viewBox="0 0 1920 239" fill="none" xmlns="http://www.w3.org/2000/svg">
<path d="M0 143L53.3333 132.3C106.667 122 213.333 100 320 73.7C426.667 47 533.333 15 640 4.30003C746.667 -5.99997 853.333 4.00003 960 31C1066.67 58 1173.33 100 1280 132.3C1386.67 164 1493.33 186 1600 175C1706.67 164 1813.33 122 1866.67 100.3L1920 79V239H1866.67C1813.33 239 1706.67 239 1600 239C1493.33 239 1386.67 239 1280 239C1173.33 239 1066.67 239 960 239C853.333 239 746.667 239 640 239C533.333 239 426.667 239 320 239C213.333 239 106.667 239 53.3333 239H0V143Z" fill="#262626"/>
</svg>
