<svg width="1920" height="307" viewBox="0 0 1920 307" fill="none" xmlns="http://www.w3.org/2000/svg">
<path d="M0 126L53.3333 120.004C106.667 113.556 213.333 102.244 320 77.6956C426.667 53.6 533.333 17.4 640 5.29559C746.667 -6.35626 853.333 4.95624 960 47.6044C1066.67 89.8 1173.33 162.2 1280 174.304C1386.67 185.956 1493.33 138.444 1600 138.104C1706.67 138.444 1813.33 185.956 1866.67 210.504L1920 234.6V307H1866.67C1813.33 307 1706.67 307 1600 307C1493.33 307 1386.67 307 1280 307C1173.33 307 1066.67 307 960 307C853.333 307 746.667 307 640 307C533.333 307 426.667 307 320 307C213.333 307 106.667 307 53.3333 307H0L0 126Z" fill="#5EDB8C"/>
</svg>
