<svg width="1918" height="239" viewBox="0 0 1918 239" fill="none" xmlns="http://www.w3.org/2000/svg">
<path d="M-2 143L51.3333 132.3C104.667 122 211.333 100 318 73.7C424.667 47 531.333 15 638 4.30003C744.667 -5.99997 851.333 4.00003 958 31C1064.67 58 1171.33 100 1278 132.3C1384.67 164 1491.33 186 1598 175C1704.67 164 1811.33 122 1864.67 100.3L1918 79V239H1864.67C1811.33 239 1704.67 239 1598 239C1491.33 239 1384.67 239 1278 239C1171.33 239 1064.67 239 958 239C851.333 239 744.667 239 638 239C531.333 239 424.667 239 318 239C211.333 239 104.667 239 51.3333 239H-2V143Z" fill="#F6F6F6"/>
</svg>
